<svg width="22" height="22" viewBox="0 0 22 22" fill="none" xmlns="http://www.w3.org/2000/svg">
<path fill-rule="evenodd" clip-rule="evenodd" d="M18.3327 3.66699C19.8515 3.66699 21.0827 4.89821 21.0827 6.41699V15.5837C21.0827 17.1025 19.8515 18.3337 18.3327 18.3337H3.66602C2.14724 18.3337 0.916016 17.1025 0.916016 15.5837V6.41699C0.916016 4.89821 2.14724 3.66699 3.66602 3.66699H18.3327ZM17.6478 5.50033H4.35093L10.4314 10.3006C10.7644 10.5636 11.2343 10.5636 11.5674 10.3006L17.6478 5.50033ZM2.74935 6.57173V15.5837C2.74935 16.0899 3.15976 16.5003 3.66602 16.5003H18.3327C18.839 16.5003 19.2493 16.0899 19.2493 15.5837V6.57174L12.7033 11.7396C11.7043 12.5284 10.2944 12.5284 9.29536 11.7396L2.74935 6.57173Z" fill="#145062"/>
</svg>
