<svg width="43" height="43" viewBox="0 0 43 43" fill="none" xmlns="http://www.w3.org/2000/svg">
<path d="M41.6514 21.6228C41.65 10.4952 32.6294 1.47461 21.5005 1.47461C10.3715 1.47461 1.34961 10.4965 1.34961 21.6255C1.34961 31.6431 8.65961 39.9529 18.2352 41.513L18.3507 41.5291V27.4493H13.2337V21.6228H18.3507V17.1857C18.3252 16.9613 18.3118 16.7006 18.3118 16.4373C18.3118 12.5095 21.4965 9.3248 25.4242 9.3248C25.6137 9.3248 25.8018 9.33286 25.9886 9.3463L25.9644 9.34495C27.5756 9.3678 29.1343 9.51023 30.6555 9.7642L30.4754 9.73867V14.6971H27.933C27.8175 14.681 27.6844 14.6716 27.55 14.6716C25.9416 14.6716 24.6368 15.975 24.6368 17.5848C24.6368 17.6762 24.6408 17.7662 24.6489 17.8563L24.6475 17.8442V21.6228H30.2362L29.3426 27.4493H24.6475V41.5291C34.34 39.9515 41.65 31.6405 41.6514 21.6228Z" fill="#A7E8FF"/>
</svg>
