<svg width="17" height="17" viewBox="0 0 17 17" fill="none" xmlns="http://www.w3.org/2000/svg">
<path d="M8.45465 14.0289C8.85535 15.155 9.05578 15.7182 9.35963 15.8859C9.62301 16.0313 9.94102 16.0381 10.2103 15.9041C10.5211 15.7495 10.7454 15.1955 11.1939 14.0874L15.4213 3.6432C15.863 2.55195 16.0839 2.00628 15.9706 1.66154C15.8723 1.36236 15.6377 1.1277 15.3385 1.02936C14.9938 0.916115 14.4481 1.13703 13.3568 1.57869L2.91264 5.80612C1.80457 6.25461 1.25049 6.47886 1.09586 6.78971C0.961876 7.059 0.968704 7.37701 1.11409 7.64039C1.28188 7.94424 1.84495 8.14467 2.97117 8.54536L6.41921 9.77226C6.63829 9.8502 6.74787 9.88917 6.8393 9.95287C6.92041 10.0092 6.99077 10.0796 7.04715 10.1607C7.11085 10.2522 7.14982 10.3617 7.22776 10.5808L8.45465 14.0289Z" stroke="#1F1F1F" stroke-width="2" stroke-linecap="round" stroke-linejoin="round"/>
</svg>
