<svg width="20" height="24" viewBox="0 0 20 24" fill="none" xmlns="http://www.w3.org/2000/svg">
<path d="M9.71917 0C4.35998 0 0 4.35998 0 9.71917C0 11.9305 0.724688 14.0131 2.09575 15.7419C3.87102 17.9802 9.03354 23.2948 9.25241 23.5199L9.71911 24L10.1859 23.52C10.4049 23.2947 15.569 17.9789 17.3445 15.7399C18.7143 14.0126 19.4383 11.9307 19.4383 9.71917C19.4383 4.35998 15.0784 0 9.71917 0ZM16.3243 14.9309C14.895 16.7333 11.0564 20.7429 9.71917 22.1297C8.38203 20.7429 4.54486 16.7346 3.11586 14.9328C1.92923 13.4366 1.30199 11.6337 1.30199 9.71917C1.30199 5.0779 5.0779 1.30199 9.71917 1.30199C14.3604 1.30199 18.1364 5.0779 18.1363 9.71917C18.1363 11.6339 17.5097 13.4361 16.3243 14.9309Z" fill="#145062"/>
<path d="M9.71991 3.8584C6.5476 3.8584 3.9668 6.43921 3.9668 9.61151C3.9668 12.7838 6.54767 15.3646 9.71991 15.3646C12.8921 15.3646 15.473 12.7837 15.473 9.61151C15.473 6.43927 12.8922 3.8584 9.71991 3.8584ZM9.71991 14.0626C7.26552 14.0626 5.26879 12.0658 5.26879 9.61151C5.26879 7.15712 7.26559 5.16039 9.71991 5.16039C12.1742 5.16039 14.171 7.15719 14.171 9.61151C14.171 12.0659 12.1743 14.0626 9.71991 14.0626Z" fill="#145062"/>
</svg>
