<svg width="127" height="98" viewBox="0 0 127 98" fill="none" xmlns="http://www.w3.org/2000/svg">
<g clip-path="url(#clip0_2_14)">
<path fill-rule="evenodd" clip-rule="evenodd" d="M0.00585938 97.9482C17.9611 95.748 39.8505 94.455 63.4763 94.455C87.1028 94.455 108.991 95.748 126.948 97.9482C110.244 94.8005 87.9576 92.8779 63.4763 92.8779C38.9952 92.8779 16.7086 94.8005 0.00585938 97.9482Z" fill="#A1A1A1"/>
<path fill-rule="evenodd" clip-rule="evenodd" d="M8.92977 84.855V81.8482H3.76017C3.47096 81.8482 3.27581 81.7702 3.17286 81.6141C3.15303 81.5843 3.13467 81.5522 3.11915 81.517C3.07293 81.2647 3.04209 80.9899 3.02678 80.6914V79.7946V69.4763C2.96576 68.5669 3.01418 67.8384 3.15204 67.2508C3.11493 67.452 3.09524 67.6599 3.0504 67.9529C3.11563 67.6599 3.31621 67.4906 3.81295 67.4607L8.92977 67.4571V64.418L8.74803 64.4454L8.89839 64.4225H1.49944C1.48163 64.4225 1.46475 64.4225 1.44794 64.4225C1.16545 64.4225 0.917428 64.4603 0.705473 64.5282C0.481275 64.6076 0.309746 64.7434 0.186266 64.9384C0.0661683 65.129 0.00191793 65.4015 0 65.7476V65.7642V83.2919C0.00191793 83.5838 0.0661683 83.8413 0.186266 84.0772C0.309746 84.3146 0.481275 84.4997 0.705473 84.64C0.930728 84.7815 1.19555 84.8496 1.49944 84.855H1.50237V84.8595H8.88279V84.855H8.92977Z" fill="#A1A1A1"/>
<path fill-rule="evenodd" clip-rule="evenodd" d="M32.4921 74.3281C32.4359 74.3609 32.3709 74.3945 32.2988 74.4237C32.3624 74.3951 32.4266 74.3629 32.4921 74.3281Z" fill="#A1A1A1"/>
<path fill-rule="evenodd" clip-rule="evenodd" d="M28.5594 84.8552H28.5632C28.6332 84.8533 28.7057 84.8546 28.7772 84.8552H28.781H28.785H28.7893H28.7931H28.7971H28.8015H28.8052H28.8092H28.8132H28.8172H31.7049V82.2609C31.7016 82.183 31.7016 82.1014 31.7039 82.0154V79.322V76.4954V76.0965C31.8283 76.0444 31.9439 75.9673 32.0491 75.8672C32.1915 75.7255 32.3149 75.5215 32.4248 75.2485C32.5329 74.9846 32.6294 74.63 32.7131 74.1984L32.7199 74.1944L34.5871 64.4473H31.3787L30.1867 71.0983L30.0783 71.6968L30.0754 71.6822C29.7715 70.0338 29.2466 67.2389 28.7208 64.4473H25.666L28.0491 76.2071H28.5603V76.4954V84.5911C28.5626 84.6836 28.5594 84.7558 28.5594 84.8552Z" fill="#A1A1A1"/>
<path fill-rule="evenodd" clip-rule="evenodd" d="M57.0181 68.2458H57.0187C57.0242 68.196 57.0317 68.1497 57.0422 68.1053L57.0425 68.1048L57.0476 68.0846L57.0482 68.0811L57.0503 68.0749L57.0514 68.0696L57.0529 68.0647L57.0616 68.0357V68.0348L57.0649 68.0261L57.0654 68.0237L57.0679 68.0167L57.0692 68.0122L57.0711 68.0077L57.0851 67.9712L57.0857 67.969L57.0965 67.9447L57.0995 67.9381L57.1004 67.936L57.1042 67.9279L57.1044 67.9276L57.1086 67.9195L57.109 67.9182L57.1127 67.9112L57.1141 67.9084L57.1192 67.8986L57.1213 67.8948L57.1245 67.889L57.126 67.8869L57.13 67.8796L57.1305 67.8789L57.1351 67.8711L57.1353 67.8702L57.1398 67.8634L57.1497 67.8484L57.1527 67.8433L57.1548 67.8409L57.1587 67.8345L57.1597 67.8335L57.165 67.8262V67.826L57.1699 67.8192L57.1841 67.801L57.1862 67.7983C57.2134 67.7647 57.2443 67.7336 57.2787 67.7075C57.3092 67.6847 57.341 67.664 57.3741 67.6452V67.6449L57.3832 67.6402V67.6398L57.4012 67.6304L57.4018 67.6302L57.4109 67.6257V67.6253L57.4201 67.6208L57.4203 67.6206L57.4389 67.6118L57.4392 67.6114L57.4487 67.6072V67.6069L57.4582 67.6031L57.4585 67.6029L57.4678 67.5988H57.4682L57.4777 67.5946H57.478L57.4875 67.5909L57.4879 67.5905L57.4973 67.5867H57.4977L57.5072 67.583H57.5079L57.5174 67.5792H57.5178L57.5276 67.5756L57.5278 67.5754L57.5378 67.5723L57.538 67.5719L57.5479 67.5687L57.5481 67.5685L57.5581 67.5653H57.5587L57.5685 67.5621H57.5693L57.5791 67.5591H57.5799L57.5895 67.5561L57.5901 67.5559L57.6001 67.5531H57.6007L57.6109 67.5501H57.6115L57.6213 67.5476H57.6221L57.6323 67.5448H57.6329L57.6431 67.5422H57.6438L57.6541 67.5401H57.6546L57.6649 67.5376H57.666L57.676 67.5352H57.677L57.6872 67.5333L57.6879 67.5331L57.6984 67.5311H57.6993L57.7097 67.5294H57.7103L57.7209 67.5275H57.7218L57.7322 67.5258H57.7332L57.7438 67.5241H57.7447L57.7555 67.5226H57.7565L57.7669 67.5213L57.7678 67.5211L57.7786 67.5198H57.7797L57.7905 67.5188H57.7915L57.8023 67.5175H57.8032L57.814 67.5166H57.8153L57.8261 67.5156H57.8271L57.8382 67.5151H57.8392L57.8501 67.5141H57.8511L57.8623 67.5138H57.8632L57.8747 67.5132H57.8755L57.8869 67.5128H57.8876L57.8992 67.5126H57.9001H57.9115H57.9124L57.9243 67.5122H57.9253L57.9366 67.5126H57.9376H57.9493H57.9505H60.636H60.6375L60.636 67.1953V64.4189H60.625H60.6186H60.6129H60.6069H60.6014H60.5961H60.591H60.5859H60.5811H60.5766H60.5722H60.5683H60.5639H60.5601H60.5567H60.5529H60.5497H60.5465H60.5433H60.5404H60.5376H60.5347H60.5323H60.53H60.5274H60.5255H60.5232H60.5213H60.5194H60.5175H60.516H60.5145H60.5128H60.51H60.5069H60.5045H60.5018H60.5001H60.4978H60.4959H60.4937H60.4918H60.4899H60.4876H60.4853H60.4833H57.4279H57.2396H57.0902H50.3819L50.373 67.5126H54.0144V67.6943V83.4204C54.0144 83.7761 54.0379 84.0481 54.0871 84.2488C54.1353 84.4478 54.215 84.5885 54.3227 84.6698C54.4291 84.7587 54.5673 84.8112 54.7331 84.827C54.9002 84.847 55.0999 84.8558 55.3351 84.8503H57.0094V68.3886C57.0102 68.3386 57.0128 68.291 57.0181 68.2458Z" fill="#A1A1A1"/>
<path fill-rule="evenodd" clip-rule="evenodd" d="M44.2298 70.5267H47.3677V67.4319V67.4063V64.4229H47.359H40.7423H39.9576H39.5671C38.3715 64.4876 37.636 64.7883 37.5989 65.8848L37.5957 66.0019V70.6949H37.5989V72.1583L37.6002 72.2141V72.2173V72.2376C37.6025 73.1225 37.6171 73.7812 37.6796 74.2714C37.8647 75.6836 38.4626 75.7068 40.3632 75.7515L43.5662 75.7493C43.8598 75.747 44.0697 75.8215 44.1974 75.9763C44.2803 76.0734 44.3241 76.205 44.343 76.3721V77.6694C44.3509 77.5424 44.3589 77.4175 44.3621 77.2972C44.3545 76.9851 44.3487 76.6794 44.3456 76.3877C44.3545 76.4789 44.3577 76.5807 44.3566 76.6909V76.9872H44.37C44.3691 77.0887 44.3668 77.1924 44.3621 77.2972C44.3971 78.6613 44.4543 80.1726 44.3295 81.3515L44.3288 81.3592C44.3042 81.4575 44.2686 81.5414 44.2218 81.6112C44.1189 81.7673 43.9251 81.8454 43.6355 81.8454H40.7357V78.7517H37.5957V84.8544L38.44 84.8522H38.4658H45.8717C46.1744 84.8479 46.4391 84.7796 46.6632 84.6381C46.8898 84.4978 47.0603 84.3118 47.1835 84.0742C47.3041 83.8395 47.3656 83.581 47.3677 83.2891V83.2752V73.9405C47.3656 73.594 47.3041 73.322 47.1835 73.1311C47.0603 72.9362 46.8898 72.8002 46.6632 72.7222C46.4391 72.6498 46.1598 72.6242 45.8571 72.6298H43.8363H43.7555H43.6749H43.2857H43.2104C41.8043 72.6221 40.8108 72.4938 40.6112 71.0652C40.5046 70.3072 40.5742 68.5086 40.6358 67.9256L40.6378 67.9082C40.6619 67.8143 40.6965 67.7336 40.741 67.6659C40.8445 67.5099 41.0397 67.4319 41.3289 67.4319H44.2298V70.5267Z" fill="#A1A1A1"/>
<path fill-rule="evenodd" clip-rule="evenodd" d="M19.5626 67.8126C19.5795 68.0391 19.592 68.2697 19.5986 68.5026C19.5986 69.4297 19.592 69.5367 19.592 70.4629H19.5986V71.7723C19.6043 72.0934 19.5401 72.3276 19.408 72.4788C19.1958 72.7386 18.8382 72.693 18.5356 72.7288C17.5161 72.8479 17.0463 73.2577 16.8591 73.9253C16.6772 74.5695 16.7523 75.6818 16.7523 76.3796C17.9971 76.3683 19.5413 76.6614 19.5861 78.1895L19.6435 84.8507H22.7452V77.5552C22.7626 76.3753 22.361 75.5764 21.7192 75.0362C22.0082 74.907 22.2349 74.7243 22.3672 74.4606C22.9133 73.3738 22.696 70.9563 22.7431 68.1805C22.7431 67.4906 22.7418 66.8018 22.7418 66.1118C22.7696 65.0065 22.2887 64.4727 21.2369 64.4236L16.7949 64.418L16.806 64.4206L12.9902 64.418V84.5889C12.9924 84.6801 12.9978 84.7683 13.0058 84.855C13.0306 84.8528 13.0541 84.8518 13.0764 84.8507H13.2458H16.1346V82.2572C16.1311 82.1804 16.1311 82.098 16.1333 82.0123V79.3174V76.4932C16.1333 73.4108 16.1346 70.3267 16.1346 67.2476L18.5219 67.2498C19.0251 67.2391 19.3961 67.2442 19.5337 67.5393C19.5467 67.638 19.5562 67.73 19.5626 67.8126Z" fill="#A1A1A1"/>
<path fill-rule="evenodd" clip-rule="evenodd" d="M118.031 64.418L120.415 76.1767H120.927V76.4654V84.5618L120.927 84.8287L124.07 84.8251C124.07 82.0384 124.069 79.2519 124.069 76.4654V76.0662C124.194 76.0139 124.309 75.9383 124.415 75.8368C124.557 75.6953 124.681 75.4914 124.791 75.2194C124.901 74.9486 125.002 74.6021 125.087 74.1542L125.087 74.1544L126.952 64.418H123.744L122.552 71.0679L122.444 71.667C122.006 69.2493 121.542 66.8328 121.086 64.418H118.031Z" fill="#A1A1A1"/>
<path fill-rule="evenodd" clip-rule="evenodd" d="M101.216 73.9306C101.513 73.8004 101.746 73.6155 101.881 73.3469C102.248 72.6159 102.269 71.2797 102.258 69.6368H102.246C102.25 68.4892 102.249 67.3646 102.263 65.9579C102.291 64.9531 101.811 64.4673 100.759 64.4236H100.757H100.756L96.3164 64.418L96.3289 64.4206L92.5117 64.418V84.855L96.3268 84.8526L96.3164 84.855L100.756 84.8496H100.757H100.759C101.811 84.8014 102.291 84.2674 102.263 83.1625V82.9661V82.9204V82.8745V82.8312V82.7878V82.7453V82.703V82.6629V82.6228V82.5839V82.5461V82.5081V82.4725V82.4345V82.4001V82.3653V82.3318V82.2974V82.2653V82.2318V82.2019L102.265 82.1691V82.139V82.1091V82.079V82.0501V82.02V81.991V81.9632V81.935V81.9073V81.8806V81.8526V81.826V81.7993V81.7724V81.7459V81.7201V81.6934V81.6678V81.6408V81.6154V81.5898V81.5629V81.5373V81.5106V81.4839V81.4583V81.4314V81.4047V81.3782V81.35V81.3234V81.2956V81.2676V81.2388V81.2106V81.182V81.1528V81.1227V81.0926L102.266 79.3228C102.257 78.9094 102.253 78.5172 102.253 78.1472H102.242V76.4486C102.259 75.2691 101.858 74.4702 101.216 73.9306ZM99.0964 67.6653C99.1072 67.8194 99.115 67.9757 99.1203 68.1335V69.6368H99.111V70.6601C99.1167 70.981 99.0527 71.2151 98.9206 71.3656C98.7071 71.6254 98.3509 71.5795 98.0479 71.6164C97.0275 71.7354 96.5587 72.1445 96.3715 72.8134L96.3696 72.82H96.3558C96.2572 73.2508 96.2392 73.6597 96.2418 74.0635V74.0652C96.2354 74.499 96.2494 74.9363 96.2494 75.274C97.4939 75.2631 99.0381 75.555 99.083 77.0839L99.1078 80.0193H99.1203V80.7706C99.1134 81.0035 99.1011 81.2343 99.0843 81.4606C99.0779 81.5433 99.0686 81.6353 99.0553 81.7344C98.9174 82.0286 98.5462 82.0339 98.0435 82.0232L95.6549 82.0267L95.6538 75.1916V75.0924V75.0479V74.9485V74.9028V74.8037V74.7582V74.6589V74.6145V74.5152V74.4693V74.3701V74.3242V74.2264V74.1805V74.0814L95.6549 67.2464L98.0435 67.2485C98.61 67.2378 99.0095 67.2461 99.0964 67.6653Z" fill="#A1A1A1"/>
<path fill-rule="evenodd" clip-rule="evenodd" d="M114.291 84.8551H117.609L115.886 75.8604C115.236 76.2595 113.773 77.1987 113.059 77.9767L114.291 84.8551Z" fill="#A1A1A1"/>
<path fill-rule="evenodd" clip-rule="evenodd" d="M111.442 68.9466L111.552 69.561L112.211 73.2387C113.267 73.193 114.423 73.3356 115.454 73.6188L114.085 66.4658C114 66.0179 113.9 65.6522 113.792 65.3816C113.682 65.1086 113.556 64.9045 113.414 64.7629C113.273 64.6273 113.112 64.5345 112.935 64.4866C112.769 64.4465 112.584 64.4219 112.382 64.4219C112.363 64.4219 112.343 64.423 112.324 64.423H109.416L105.273 84.8557H108.445H108.446L108.448 84.8476C110.239 78.7289 114.997 75.5719 117.615 74.7153C116.462 73.926 114.472 73.4202 112.681 73.4202C111.905 73.4202 111.165 73.5157 110.549 73.7242C110.905 71.8317 111.228 70.1053 111.442 68.9466Z" fill="#A1A1A1"/>
<path fill-rule="evenodd" clip-rule="evenodd" d="M69.0353 84.8551H72.3535L70.6299 75.8604C69.9807 76.2595 68.5172 77.1987 67.8027 77.9767L69.0353 84.8551Z" fill="#A1A1A1"/>
<path fill-rule="evenodd" clip-rule="evenodd" d="M66.1843 68.9466L66.2943 69.561L66.9537 73.2387C68.0091 73.193 69.1651 73.3356 70.1957 73.6188L68.8276 66.4658C68.7423 66.0179 68.6425 65.6522 68.5337 65.3816C68.4237 65.1086 68.2983 64.9045 68.1559 64.7629C68.0147 64.6273 67.8542 64.5345 67.6771 64.4866C67.5111 64.4465 67.3262 64.4219 67.1244 64.4219C67.1053 64.4219 67.085 64.423 67.0659 64.423H64.1582L60.0156 84.8557H63.1872H63.1882L63.1897 84.8476C64.9811 78.7289 69.7395 75.5719 72.3566 74.7153C71.2041 73.926 69.2145 73.4202 67.4235 73.4202C66.6469 73.4202 65.9072 73.5157 65.2911 73.7242C65.6472 71.8317 65.9702 70.1053 66.1843 68.9466Z" fill="#A1A1A1"/>
<path fill-rule="evenodd" clip-rule="evenodd" d="M75.3652 84.8557H82.0476H83.0768H83.0884V84.2295V81.7611H79.3003C79.0299 81.7664 78.8056 81.6985 78.6284 81.5672L78.6218 81.5617L78.6207 81.5604L78.6152 81.5559L78.6125 81.5538L78.6087 81.5504L78.605 81.5472L78.6021 81.5448L78.5972 81.5403L78.5959 81.5388L78.59 81.5333L78.5894 81.5328L78.5834 81.5267L78.5824 81.526L78.5773 81.5207L78.5754 81.5188L78.5709 81.5143L78.5681 81.5115L78.5652 81.5081L78.5611 81.5038L78.5592 81.5017L78.554 81.4961L78.5535 81.4949L78.5478 81.4884H78.5474L78.5421 81.4818L78.5408 81.4803L78.5366 81.4748L78.531 81.4679L78.5277 81.4641L78.5255 81.4609L78.5215 81.4556L78.5205 81.4539L78.5154 81.4474L78.5151 81.4468L78.5099 81.4395L78.5094 81.4385L78.5048 81.4321L78.5033 81.4301L78.4997 81.4246L78.4973 81.4208L78.495 81.4171L78.4916 81.412L78.4903 81.4094L78.4861 81.4028L78.4855 81.4018L78.4808 81.3939L78.4804 81.3937L78.4763 81.386L78.4753 81.3842L78.4717 81.3778L78.47 81.3747L78.4674 81.37L78.4647 81.3648L78.463 81.3618L78.4596 81.3552L78.4588 81.3533L78.4549 81.345H78.4547L78.4505 81.3364L78.4501 81.3351L78.4467 81.3279L78.4454 81.3249L78.4365 81.304L78.4352 81.3014L78.432 81.2935L78.4314 81.2925L78.4212 81.2651L78.42 81.2609C78.3831 81.1539 78.3644 81.0285 78.3606 80.8861V64.423H76.6863C76.6436 64.4219 76.6008 64.4219 76.5605 64.4219C76.379 64.4219 76.2196 64.4311 76.0829 64.4478C75.9179 64.4619 75.7801 64.5156 75.6722 64.6025C75.5649 64.6863 75.4873 64.8265 75.4372 65.0262C75.391 65.216 75.3673 65.4722 75.3652 65.8027V65.8518V84.8557Z" fill="#A1A1A1"/>
<path fill-rule="evenodd" clip-rule="evenodd" d="M63.1875 84.8556H63.1884L63.19 84.8472C64.9816 78.7289 69.7398 75.5718 72.3569 74.715C71.2044 73.9259 69.2148 73.4199 67.4237 73.4199C66.6472 73.4199 65.9075 73.5155 65.2916 73.7239C65.2091 74.194 65.1216 74.683 65.0314 75.182C64.2285 79.6186 63.1875 84.8556 63.1875 84.8556Z" fill="#A1A1A1"/>
<path fill-rule="evenodd" clip-rule="evenodd" d="M108.467 84.8556H108.468L108.469 84.8472C110.261 78.7289 115.019 75.5718 117.636 74.715C116.484 73.9259 114.494 73.4199 112.703 73.4199C111.926 73.4199 111.187 73.5155 110.571 73.7239C110.488 74.194 110.401 74.683 110.311 75.182C109.508 79.6186 108.467 84.8556 108.467 84.8556Z" fill="#A1A1A1"/>
<path fill-rule="evenodd" clip-rule="evenodd" d="M50.5177 39.0091C49.9867 39.9387 49.1773 41.2747 48.8711 42.5309C48.9237 42.4137 48.9565 42.3606 49.0265 42.2484C49.8076 40.9905 51.6494 40.0512 53.7632 39.2154C54.2852 39.0096 54.7996 38.8274 55.3201 38.6432C57.5928 37.8397 60.0002 36.9861 62.5826 34.3192C62.6418 34.2567 62.6899 34.1977 62.7438 34.1305C62.7955 34.1956 62.8428 34.2541 62.9007 34.3141C65.3226 36.8185 67.2433 37.5299 69.9198 38.5236C70.4887 38.7352 71.0933 38.9596 71.7411 39.2154C73.9866 40.1029 75.803 41.069 76.5378 42.327C76.5768 42.3936 76.6129 42.4622 76.6459 42.5303C76.3245 41.2779 75.4942 39.898 74.9863 39.0091C71.2721 32.4984 65.2102 27.6783 62.7438 21.9941C60.0068 28.1002 53.9072 33.0672 50.5177 39.0091Z" fill="#A1A1A1"/>
<path fill-rule="evenodd" clip-rule="evenodd" d="M44.9336 4.45503C45.6593 3.91629 47.5987 3.64642 48.5036 3.55777C49.3311 3.47687 50.0452 3.47283 50.7531 3.58593C51.4619 3.69898 52.1618 3.93043 52.9583 4.31805C55.3813 5.49896 57.3911 7.75915 59.0158 10.323C60.6063 12.8331 61.7097 15.6347 62.5908 17.9968C62.6129 18.0566 62.7244 18.3506 62.7431 18.35H62.7458C62.7645 18.3506 62.876 18.0566 62.8983 17.9968C63.7792 15.6347 64.8826 12.8331 66.4731 10.323C68.0978 7.75915 70.1076 5.49896 72.5306 4.31805C73.3273 3.93043 74.027 3.69898 74.7358 3.58593C75.4437 3.47283 76.1578 3.47687 76.9853 3.55777C77.8902 3.64642 79.8296 3.91629 80.5553 4.45503C77.4838 1.69167 66.8124 0.0242523 62.7444 0C58.6765 0.0242523 48.0051 1.69167 44.9336 4.45503Z" fill="#A1A1A1"/>
<path fill-rule="evenodd" clip-rule="evenodd" d="M57.2484 44.3368C56.8184 44.9995 57.4752 45.5604 58.0042 46.0733L62.7444 50.6663L67.4993 46.0733C67.9827 45.6044 68.5743 45.0952 68.3438 44.5049C68.0648 43.7911 66.8332 43.4749 66.17 43.2823C64.9585 42.9304 63.6113 42.54 62.7448 41.0847C61.9788 42.5075 60.3619 43.0374 59.0243 43.4734C58.5296 43.635 57.5371 43.8932 57.2484 44.3368Z" fill="#A1A1A1"/>
<path fill-rule="evenodd" clip-rule="evenodd" d="M57.2285 43.8995C57.6167 43.5886 58.2394 43.4025 58.9583 43.168C60.3115 42.7269 61.9722 42.1872 62.6551 40.7116L62.7444 40.5178L62.8455 40.7057C63.6643 42.2278 65.0113 42.6215 66.2296 42.9753C67.016 43.2033 67.7481 43.4163 68.2679 43.9L68.2353 43.8216C67.5825 42.2841 66.3159 40.667 65.2604 39.3674C64.424 38.3372 63.3308 37.1335 62.7446 36.0674C62.1921 37.1659 61.2849 38.2413 60.3337 39.3651C59.1738 40.7356 57.9655 42.1592 57.269 43.7979H57.2694L57.2285 43.8995Z" fill="#A1A1A1"/>
<path fill-rule="evenodd" clip-rule="evenodd" d="M50.9094 47.0065L62.7433 58.2756L74.5939 47.0065C76.6183 45.0785 76.9764 43.6331 76.295 42.4664C75.5985 41.274 73.8303 40.3401 71.6375 39.4735C70.9896 39.2175 70.3881 38.994 69.8224 38.7835C68.2721 38.2083 66.558 37.5067 65.059 36.5115C64.2037 35.9432 63.2681 35.0656 62.7437 34.4834C64.4706 37.3079 67.9367 40.1089 69.3795 43.6638C69.9626 45.1026 69.6393 45.3922 68.5493 46.4285L62.8485 51.8544L62.7437 51.9462L62.6547 51.8544L56.9533 46.4291C55.8821 45.4067 55.5191 45.1526 56.1225 43.6638C57.5588 40.1296 60.6256 37.5003 62.7429 34.4836C62.0744 35.0972 61.6614 35.618 60.9095 36.1868C58.9846 37.6427 57.1574 38.2892 55.4131 38.9056C54.8852 39.0922 54.3639 39.2769 53.8658 39.4735C51.8001 40.29 50.0053 41.2003 49.2639 42.3936C48.539 43.5603 48.8342 45.0305 50.9094 47.0065Z" fill="#A1A1A1"/>
<path fill-rule="evenodd" clip-rule="evenodd" d="M77.9436 10.0573C74.08 12.3098 70.4659 14.9531 67.1533 17.9274C64.5149 20.4299 64.2855 20.7358 66.7146 23.4702C67.1435 23.9636 67.5642 24.4652 67.978 24.9723C68.1396 25.1826 68.4714 25.5837 68.7784 25.7791C68.7699 25.7398 68.7653 25.6965 68.7649 25.6504C68.7649 24.1163 72.0666 19.2769 72.9923 18.0227C75.5154 14.6034 78.8725 11.0015 82.2018 9.36256C83.3745 8.78515 84.5466 8.44994 85.6794 8.45052C86.2544 8.45122 86.8077 8.53496 87.3346 8.69699C87.5002 8.7483 87.6632 8.8071 87.824 8.87371C86.7488 8.15959 85.6378 7.59766 84.3036 7.59766C82.2239 7.59766 79.7074 9.0277 77.9436 10.0573Z" fill="#A1A1A1"/>
<path fill-rule="evenodd" clip-rule="evenodd" d="M69.108 25.7186C69.2248 25.6693 69.3819 25.5632 69.5509 25.4325C69.5509 25.427 70.0367 25.0258 70.0848 24.9825C70.2839 24.804 70.437 24.6603 70.5434 24.5604C72.5292 22.6919 75.3721 20.7029 77.6696 19.2146C80.0919 17.6451 82.6217 16.2325 85.2419 14.9922C86.4701 14.3224 87.6888 13.9068 88.6925 13.5657C89.7302 13.2127 90.5331 12.9394 90.8375 12.5591C91.2387 12.0571 90.7432 11.2771 88.6953 9.65858C88.2371 9.35116 87.7552 9.11777 87.2516 8.96278C86.751 8.80874 86.2255 8.72887 85.6789 8.72852C84.5923 8.72852 83.4611 9.05271 82.3249 9.61215C79.0428 11.228 75.7201 14.7965 73.2178 18.1872C70.7414 21.5429 69.0722 24.7068 69.0451 25.6221C69.0444 25.6593 69.045 25.7048 69.0563 25.7393L69.108 25.7186Z" fill="#A1A1A1"/>
<path fill-rule="evenodd" clip-rule="evenodd" d="M88.7398 17.4585C82.8297 19.7539 77.2615 22.8005 72.3933 26.7237C69.8594 28.7665 71.2146 29.166 72.7876 31.6363C73.7593 33.2442 74.1795 34.019 74.6786 34.146C74.5056 33.8388 74.8315 32.9218 75.9365 31.0239C77.7304 27.9091 82.4517 23.4273 85.315 21.2483C88.2861 18.9863 91.4038 17.3285 93.9324 17.3285C94.7501 17.3285 95.4583 17.5139 96.0526 17.882C96.2466 18.0024 96.4247 18.139 96.5913 18.2952C95.8219 17.052 94.8144 16.2588 93.2951 16.2588C91.928 16.2588 90.0263 16.9596 88.7398 17.4585Z" fill="#A1A1A1"/>
<path fill-rule="evenodd" clip-rule="evenodd" d="M76.1981 31.1292C75.0462 33.1037 74.7276 33.8899 74.9019 33.99C75.1207 34.1162 76.1731 33.3019 77.3605 32.3819L77.8914 31.9721C80.4006 30.256 83.0258 28.7161 85.7444 27.3676C88.4512 26.0246 91.2548 24.8683 94.134 23.9124C94.134 23.8633 96.2627 23.2486 96.5057 23.1814C97.0631 23.0274 97.4843 22.9107 97.771 22.7757C98.5107 22.427 98.282 21.8619 97.2469 19.6941C96.9382 19.0432 96.4857 18.461 95.8584 18.0896C95.3196 17.7689 94.6759 17.6074 93.9319 17.6074C91.4721 17.6074 88.4118 19.2409 85.4844 21.4693C81.5678 24.45 77.8977 28.4911 76.1981 31.1292Z" fill="#A1A1A1"/>
<path fill-rule="evenodd" clip-rule="evenodd" d="M93.1618 27.9117C88.458 29.4972 83.992 31.6065 79.833 34.1733C75.6524 36.7527 75.7298 36.7623 77.6254 40.586C77.9142 41.2314 78.1936 41.8805 78.4623 42.5338C78.7746 43.2947 78.888 43.6936 79.0247 43.8253C79.0322 43.6071 79.2238 43.1784 79.6574 42.4379C80.9535 40.1028 82.5371 37.9109 84.3448 35.9225C86.1675 33.9181 88.2179 32.1206 90.4302 30.5917C91.61 29.7761 93.3009 28.7818 95.0083 28.0761C96.3101 27.5379 97.6242 27.1662 98.7345 27.1662C99.2502 27.1662 99.7082 27.2456 100.104 27.4066C99.4732 26.9951 98.7305 26.8252 97.9085 26.8252C96.3137 26.8252 94.6585 27.4074 93.1618 27.9117Z" fill="#A1A1A1"/>
<path fill-rule="evenodd" clip-rule="evenodd" d="M47.5467 10.0573C51.41 12.3098 55.0245 14.9531 58.3369 17.9274C60.9753 20.4299 61.2047 20.7358 58.7756 23.4702C58.3466 23.9636 57.926 24.4652 57.5121 24.9723C57.3504 25.1826 57.0188 25.5837 56.7119 25.7791C56.7228 25.7277 56.7259 25.6768 56.7245 25.6252C56.7018 24.6703 55.0101 21.4263 52.4979 18.0227C49.9746 14.6034 46.6177 11.0015 43.2885 9.36256C42.1156 8.78515 40.9434 8.44994 39.8108 8.45052C39.2358 8.45122 38.6826 8.53496 38.1557 8.69699C37.99 8.7483 37.8269 8.8071 37.666 8.87371C38.7414 8.15959 39.8523 7.59766 41.1864 7.59766C43.2758 7.59766 45.7764 9.02402 47.5467 10.0573Z" fill="#A1A1A1"/>
<path fill-rule="evenodd" clip-rule="evenodd" d="M56.381 25.7186C56.2309 25.6552 56.06 25.5278 55.9325 25.4276C55.588 25.161 55.2628 24.8584 54.9456 24.5604C52.9566 22.6904 50.1194 20.7044 47.8194 19.2146C45.3971 17.6451 42.8673 16.2325 40.2471 14.9922C39.0189 14.3224 37.8 13.9068 36.7965 13.5657C35.7588 13.2127 34.9561 12.9394 34.6515 12.5591C34.2503 12.0571 34.7458 11.2771 36.7937 9.65858C37.2519 9.35116 37.7338 9.11777 38.2374 8.96278C38.738 8.80874 39.2635 8.72887 39.8101 8.72852C40.8967 8.72852 42.0279 9.05271 43.1641 9.61215C46.4464 11.228 49.7689 14.7965 52.271 18.1872C54.7425 21.536 56.4098 24.6934 56.4437 25.6162C56.445 25.6548 56.4444 25.7041 56.4329 25.7393L56.381 25.7186Z" fill="#A1A1A1"/>
<path fill-rule="evenodd" clip-rule="evenodd" d="M36.7219 17.4476C42.6424 19.7443 48.2206 22.7943 53.0964 26.7237C55.6303 28.7665 54.2752 29.166 52.7021 31.6363C51.7304 33.2442 51.3102 34.019 50.811 34.146C51.0926 33.6468 49.7885 31.373 49.53 30.9848C47.8175 28.3243 44.1186 24.2499 40.1747 21.2483C37.2038 18.9863 34.0859 17.3285 31.5573 17.3285C30.7414 17.3285 30.0341 17.5132 29.4407 17.8798C29.2463 17.9988 29.0646 18.1394 28.8984 18.2952C29.6676 17.052 30.6753 16.2588 32.1946 16.2588C33.7004 16.2588 35.3113 16.9643 36.7219 17.4476Z" fill="#A1A1A1"/>
<path fill-rule="evenodd" clip-rule="evenodd" d="M49.2913 31.1292C50.4432 33.1037 50.7615 33.8899 50.5874 33.99C50.3688 34.1162 49.3162 33.3019 48.1288 32.3819L47.5979 31.9721C45.0887 30.256 42.4636 28.7161 39.7449 27.3676C37.0381 26.0246 34.2345 24.8683 31.3553 23.9124C31.3553 23.8633 29.2264 23.2486 28.9834 23.1814C28.4262 23.0274 28.005 22.9107 27.7183 22.7757C26.9788 22.427 27.2073 21.8619 28.2426 19.6941C28.5719 18.999 29.0152 18.4767 29.5667 18.1295L29.5663 18.1292C30.1181 17.7822 30.7835 17.6074 31.5574 17.6074C34.0172 17.6074 37.0775 19.2409 40.0049 21.4693C43.9213 24.45 47.5916 28.4911 49.2913 31.1292Z" fill="#A1A1A1"/>
<path fill-rule="evenodd" clip-rule="evenodd" d="M32.327 27.9117C37.0305 29.4972 41.4965 31.6065 45.6557 34.1733C49.8363 36.7527 49.7589 36.7623 47.8634 40.586C47.5744 41.2314 47.295 41.8805 47.0262 42.5338C46.714 43.2947 46.6008 43.6936 46.4641 43.8253C46.4564 43.6071 46.265 43.1784 45.8314 42.4379C44.5351 40.1028 42.9515 37.9109 41.1439 35.9225C39.3215 33.9181 37.2709 32.1206 35.0583 30.5917C33.8786 29.7761 32.1877 28.7818 30.4803 28.0761C29.1787 27.5379 27.8646 27.1662 26.7543 27.1662C26.2384 27.1662 25.7805 27.2456 25.3848 27.4066C26.0156 26.9951 26.7583 26.8252 27.5803 26.8252C29.1872 26.8252 30.8204 27.4042 32.327 27.9117Z" fill="#A1A1A1"/>
<path fill-rule="evenodd" clip-rule="evenodd" d="M34.8976 30.82C37.0959 32.3393 39.1302 34.1221 40.9358 36.1075C42.7288 38.0791 44.2994 40.2545 45.5864 42.574C45.6294 42.6637 46.2583 43.7033 46.2539 43.7479C46.2494 43.7505 45.9731 43.5414 45.6053 43.2613C45.3214 43.0457 44.9873 42.7918 44.6404 42.5655C41.8937 40.781 38.9977 39.1932 35.9982 37.8329C33.0285 36.4861 29.9573 35.3616 26.8294 34.4879C26.1857 34.3073 25.6383 34.1719 25.1805 34.0592C24.0901 33.7903 23.5206 33.6494 23.3298 33.3125C23.117 32.9376 23.3099 32.2398 23.7131 30.7825C23.8171 30.4058 23.9347 29.9814 24.0437 29.5723C24.176 28.9561 24.4408 28.3728 24.9486 27.9744C25.4027 27.6178 26.0098 27.4443 26.7531 27.4443C27.824 27.4443 29.1014 27.8068 30.3716 28.332C32.057 29.0287 33.7296 30.0125 34.8976 30.82Z" fill="#A1A1A1"/>
<path fill-rule="evenodd" clip-rule="evenodd" d="M52.7253 4.56711C55.096 5.72239 57.0696 7.94561 58.6693 10.4703C60.2025 12.8905 61.3942 15.5901 62.2648 17.8979C62.223 17.8716 62.1808 17.843 62.1401 17.813C62.0017 17.7117 61.8715 17.595 61.7595 17.4888C61.5522 17.2594 61.345 17.0331 61.1394 16.8142C60.931 16.5921 60.7177 16.3697 60.5012 16.1492C58.3108 13.912 55.9782 12.0402 53.5083 10.3655C51.0428 8.69306 48.4372 7.21541 45.6962 5.76185C45.4598 5.61775 44.8371 5.22928 44.8113 4.95005C44.7863 4.69246 45.375 4.46618 45.5258 4.41045C46.5111 4.04574 48.1103 3.8646 48.4207 3.83381C49.2251 3.75554 49.9171 3.75084 50.5988 3.85984C51.2794 3.96854 51.9544 4.19197 52.7253 4.56711Z" fill="#A1A1A1"/>
<path fill-rule="evenodd" clip-rule="evenodd" d="M72.7644 4.56711C70.3936 5.72239 68.4201 7.94561 66.8204 10.4703C65.2871 12.8905 64.0953 15.5901 63.2246 17.8979C63.2668 17.8716 63.3086 17.843 63.3495 17.813C63.4879 17.7117 63.6179 17.595 63.7302 17.4888C63.9374 17.2594 64.1447 17.0331 64.3502 16.8142C64.5584 16.5921 64.7719 16.3697 64.9884 16.1492C67.1786 13.912 69.5114 12.0402 71.9814 10.3655C74.4468 8.69306 77.0525 7.21541 79.7935 5.76185C79.9256 5.68138 80.1096 5.56698 80.2784 5.4364C80.4024 5.34019 80.6626 5.12152 80.6783 4.95005C80.7033 4.69246 80.1147 4.46618 79.9638 4.41045C78.9785 4.04574 77.3793 3.8646 77.0689 3.83381C76.2645 3.75554 75.5724 3.75084 74.8908 3.85984C74.21 3.96854 73.5353 4.19197 72.7644 4.56711Z" fill="#A1A1A1"/>
<path fill-rule="evenodd" clip-rule="evenodd" d="M90.5908 30.82C88.3922 32.3393 86.3579 34.1221 84.5523 36.1075C82.7595 38.0791 81.1888 40.2545 79.9018 42.574C79.8601 42.6569 79.2302 43.7061 79.2344 43.7479C79.2387 43.7505 79.5153 43.5414 79.883 43.2613C82.6026 41.1952 86.3816 39.2425 89.4902 37.8329C92.4598 36.4861 95.5311 35.3616 98.659 34.4879C99.3025 34.3073 99.8498 34.1719 100.308 34.0592C101.398 33.7903 101.968 33.6494 102.159 33.3125C102.371 32.9376 102.178 32.2398 101.775 30.7825C101.671 30.4058 101.553 29.9814 101.445 29.5723C101.312 28.9561 101.047 28.3728 100.54 27.9744C100.085 27.6178 99.4785 27.4443 98.7352 27.4443C97.6642 27.4443 96.387 27.8068 95.1166 28.332C93.4311 29.0287 91.7589 30.0125 90.5908 30.82Z" fill="#A1A1A1"/>
</g>
<defs>
<clipPath id="clip0_2_14">
<rect width="127" height="98" fill="#A1A1A1"/>
</clipPath>
</defs>
</svg>
