<svg width="263" height="250" viewBox="0 0 263 250" fill="none" xmlns="http://www.w3.org/2000/svg">
<path d="M16.512 238.912L16.368 236.008L25.176 227.2H28.584L16.512 238.912ZM14.352 244V227.2H16.944V244H14.352ZM25.488 244L19.056 235.408L20.976 233.752L28.728 244H25.488ZM36.108 244.24C34.812 244.24 33.66 243.968 32.652 243.424C31.66 242.864 30.876 242.104 30.3 241.144C29.74 240.184 29.46 239.08 29.46 237.832C29.46 236.84 29.62 235.936 29.94 235.12C30.26 234.304 30.7 233.6 31.26 233.008C31.836 232.4 32.516 231.936 33.3 231.616C34.1 231.28 34.964 231.112 35.892 231.112C36.708 231.112 37.468 231.272 38.172 231.592C38.876 231.896 39.484 232.32 39.996 232.864C40.524 233.408 40.924 234.056 41.196 234.808C41.484 235.544 41.62 236.352 41.604 237.232L41.58 238.288H31.284L30.732 236.32H39.444L39.084 236.728V236.152C39.036 235.624 38.86 235.152 38.556 234.736C38.252 234.32 37.868 233.992 37.404 233.752C36.94 233.512 36.436 233.392 35.892 233.392C35.028 233.392 34.3 233.56 33.708 233.896C33.116 234.216 32.668 234.696 32.364 235.336C32.06 235.96 31.908 236.736 31.908 237.664C31.908 238.544 32.092 239.312 32.46 239.968C32.828 240.608 33.348 241.104 34.02 241.456C34.692 241.808 35.468 241.984 36.348 241.984C36.972 241.984 37.548 241.88 38.076 241.672C38.62 241.464 39.204 241.088 39.828 240.544L41.076 242.296C40.692 242.68 40.22 243.016 39.66 243.304C39.116 243.592 38.532 243.824 37.908 244C37.3 244.16 36.7 244.24 36.108 244.24ZM33.012 229.432L32.1 228.64L34.86 225.928H36.924L39.684 228.64L38.772 229.432L35.532 227.68H36.252L33.012 229.432ZM39.9 226.12L38.652 225.256L40.62 221.752L42.708 223.24L39.9 226.12ZM45.8505 244V228.184H48.3225V244H45.8505ZM43.2345 233.8V231.4H51.2505V233.8H43.2345ZM60.228 244V231.4H62.7V233.992L62.268 234.28C62.428 233.72 62.74 233.208 63.204 232.744C63.668 232.264 64.22 231.88 64.86 231.592C65.5 231.288 66.156 231.136 66.828 231.136C67.788 231.136 68.588 231.328 69.228 231.712C69.868 232.08 70.348 232.648 70.668 233.416C70.988 234.184 71.148 235.152 71.148 236.32V244H68.676V236.488C68.676 235.768 68.58 235.176 68.388 234.712C68.196 234.232 67.9 233.888 67.5 233.68C67.1 233.456 66.604 233.36 66.012 233.392C65.532 233.392 65.092 233.472 64.692 233.632C64.292 233.776 63.94 233.984 63.636 234.256C63.348 234.528 63.116 234.848 62.94 235.216C62.78 235.568 62.7 235.952 62.7 236.368V244H61.476C61.268 244 61.06 244 60.852 244C60.644 244 60.436 244 60.228 244ZM80.1654 244.24C78.9334 244.24 77.8294 243.96 76.8534 243.4C75.8934 242.824 75.1334 242.048 74.5734 241.072C74.0134 240.08 73.7334 238.952 73.7334 237.688C73.7334 236.424 74.0134 235.304 74.5734 234.328C75.1334 233.336 75.8934 232.56 76.8534 232C77.8294 231.424 78.9334 231.136 80.1654 231.136C81.3814 231.136 82.4694 231.424 83.4294 232C84.4054 232.56 85.1734 233.336 85.7334 234.328C86.2934 235.304 86.5734 236.424 86.5734 237.688C86.5734 238.952 86.2934 240.08 85.7334 241.072C85.1734 242.048 84.4054 242.824 83.4294 243.4C82.4694 243.96 81.3814 244.24 80.1654 244.24ZM80.1654 241.984C80.9174 241.984 81.5894 241.8 82.1814 241.432C82.7734 241.048 83.2374 240.536 83.5734 239.896C83.9094 239.24 84.0694 238.504 84.0534 237.688C84.0694 236.856 83.9094 236.12 83.5734 235.48C83.2374 234.824 82.7734 234.312 82.1814 233.944C81.5894 233.576 80.9174 233.392 80.1654 233.392C79.4134 233.392 78.7334 233.584 78.1254 233.968C77.5334 234.336 77.0694 234.848 76.7334 235.504C76.3974 236.144 76.2374 236.872 76.2534 237.688C76.2374 238.504 76.3974 239.24 76.7334 239.896C77.0694 240.536 77.5334 241.048 78.1254 241.432C78.7334 241.8 79.4134 241.984 80.1654 241.984ZM77.2854 229.432L76.3734 228.64L79.1334 225.928H81.1974L83.9574 228.64L83.0454 229.432L79.8054 227.68H80.5254L77.2854 229.432ZM84.1734 226.12L82.9254 225.256L84.8934 221.752L86.9814 223.24L84.1734 226.12ZM89.6751 244V231.4H92.1471V244H89.6751ZM90.8751 228.616C90.3471 228.616 89.9391 228.48 89.6511 228.208C89.3631 227.936 89.2191 227.552 89.2191 227.056C89.2191 226.592 89.3631 226.216 89.6511 225.928C89.9551 225.64 90.3631 225.496 90.8751 225.496C91.4031 225.496 91.8111 225.632 92.0991 225.904C92.3871 226.176 92.5311 226.56 92.5311 227.056C92.5311 227.52 92.3791 227.896 92.0751 228.184C91.7871 228.472 91.3871 228.616 90.8751 228.616ZM106.801 244L101.473 231.4H104.137L107.977 240.832L107.521 241.048L111.625 231.4H114.169L108.577 244H106.801ZM121.744 244.24C120.512 244.24 119.408 243.96 118.432 243.4C117.472 242.824 116.712 242.048 116.152 241.072C115.592 240.08 115.312 238.952 115.312 237.688C115.312 236.424 115.592 235.304 116.152 234.328C116.712 233.336 117.472 232.56 118.432 232C119.408 231.424 120.512 231.136 121.744 231.136C122.096 231.136 122.416 231.16 122.704 231.208C123.008 231.256 123.272 231.304 123.496 231.352C123.64 231.384 123.768 231.416 123.88 231.448C124.008 231.464 124.12 231.472 124.216 231.472C124.856 231.472 125.328 231.24 125.632 230.776C125.936 230.296 126.088 229.592 126.088 228.664H128.056C128.056 229.384 127.96 230.04 127.768 230.632C127.592 231.224 127.296 231.72 126.88 232.12C126.48 232.504 125.952 232.768 125.296 232.912L125.464 232.288C126.296 232.864 126.952 233.616 127.432 234.544C127.912 235.472 128.152 236.52 128.152 237.688C128.152 238.952 127.872 240.08 127.312 241.072C126.752 242.048 125.984 242.824 125.008 243.4C124.048 243.96 122.96 244.24 121.744 244.24ZM121.744 241.984C122.496 241.984 123.168 241.8 123.76 241.432C124.352 241.048 124.816 240.536 125.152 239.896C125.488 239.24 125.648 238.504 125.632 237.688C125.648 236.856 125.488 236.12 125.152 235.48C124.816 234.824 124.352 234.312 123.76 233.944C123.168 233.576 122.496 233.392 121.744 233.392C120.992 233.392 120.312 233.584 119.704 233.968C119.112 234.336 118.648 234.848 118.312 235.504C117.976 236.144 117.816 236.872 117.832 237.688C117.816 238.504 117.976 239.24 118.312 239.896C118.648 240.536 119.112 241.048 119.704 241.432C120.312 241.8 120.992 241.984 121.744 241.984ZM120.064 229.456L119.248 228.232L122.68 225.232L124.24 227.2L120.064 229.456ZM131.253 244V231.4H133.725V244H131.253ZM132.453 228.616C131.925 228.616 131.517 228.48 131.229 228.208C130.941 227.936 130.797 227.552 130.797 227.056C130.797 226.592 130.941 226.216 131.229 225.928C131.533 225.64 131.941 225.496 132.453 225.496C132.981 225.496 133.389 225.632 133.677 225.904C133.965 226.176 134.109 226.56 134.109 227.056C134.109 227.52 133.957 227.896 133.653 228.184C133.365 228.472 132.965 228.616 132.453 228.616ZM149.603 244.24C148.435 244.24 147.387 243.952 146.459 243.376C145.547 242.8 144.819 242.016 144.275 241.024C143.747 240.032 143.483 238.92 143.483 237.688C143.483 236.456 143.747 235.344 144.275 234.352C144.819 233.36 145.547 232.576 146.459 232C147.387 231.424 148.435 231.136 149.603 231.136C150.723 231.136 151.739 231.368 152.651 231.832C153.579 232.28 154.283 232.896 154.763 233.68L153.395 235.36C153.139 234.992 152.811 234.656 152.411 234.352C152.011 234.048 151.587 233.808 151.139 233.632C150.691 233.456 150.259 233.368 149.843 233.368C149.075 233.368 148.387 233.56 147.779 233.944C147.187 234.312 146.715 234.824 146.363 235.48C146.011 236.136 145.835 236.872 145.835 237.688C145.835 238.504 146.019 239.24 146.387 239.896C146.755 240.536 147.243 241.048 147.851 241.432C148.459 241.816 149.131 242.008 149.867 242.008C150.299 242.008 150.715 241.936 151.115 241.792C151.531 241.648 151.931 241.432 152.315 241.144C152.699 240.856 153.059 240.504 153.395 240.088L154.763 241.768C154.251 242.488 153.515 243.08 152.555 243.544C151.611 244.008 150.627 244.24 149.603 244.24ZM157.095 244V226.24H159.567V233.992L159.135 234.28C159.295 233.72 159.607 233.208 160.071 232.744C160.535 232.264 161.087 231.88 161.727 231.592C162.367 231.288 163.023 231.136 163.695 231.136C164.655 231.136 165.455 231.328 166.095 231.712C166.735 232.08 167.215 232.648 167.535 233.416C167.855 234.184 168.015 235.152 168.015 236.32V244H165.543V236.488C165.543 235.768 165.447 235.176 165.255 234.712C165.063 234.232 164.767 233.888 164.367 233.68C163.967 233.456 163.471 233.36 162.879 233.392C162.399 233.392 161.959 233.472 161.559 233.632C161.159 233.776 160.807 233.984 160.503 234.256C160.215 234.528 159.983 234.848 159.807 235.216C159.647 235.568 159.567 235.952 159.567 236.368V244H158.343C158.135 244 157.927 244 157.719 244C157.511 244 157.303 244 157.095 244ZM175.785 244.24C174.889 244.24 174.105 244.032 173.433 243.616C172.777 243.2 172.265 242.616 171.897 241.864C171.545 241.112 171.369 240.216 171.369 239.176V231.4H173.841V238.504C173.841 239.24 173.953 239.88 174.177 240.424C174.417 240.952 174.753 241.36 175.185 241.648C175.633 241.936 176.169 242.08 176.793 242.08C177.257 242.08 177.681 242.008 178.065 241.864C178.449 241.704 178.777 241.488 179.049 241.216C179.337 240.944 179.561 240.616 179.721 240.232C179.881 239.848 179.961 239.432 179.961 238.984V231.4H182.433V244H179.961V241.36L180.393 241.072C180.201 241.664 179.873 242.2 179.409 242.68C178.961 243.16 178.425 243.544 177.801 243.832C177.177 244.104 176.505 244.24 175.785 244.24ZM175.233 229.456L174.417 228.232L177.849 225.232L179.409 227.2L175.233 229.456ZM185.9 244V231.4H188.372V233.992L187.94 234.28C188.1 233.72 188.412 233.208 188.876 232.744C189.34 232.264 189.892 231.88 190.532 231.592C191.172 231.288 191.828 231.136 192.5 231.136C193.46 231.136 194.26 231.328 194.9 231.712C195.54 232.08 196.02 232.648 196.34 233.416C196.66 234.184 196.82 235.152 196.82 236.32V244H194.348V236.488C194.348 235.768 194.252 235.176 194.06 234.712C193.868 234.232 193.572 233.888 193.172 233.68C192.772 233.456 192.276 233.36 191.684 233.392C191.204 233.392 190.764 233.472 190.364 233.632C189.964 233.776 189.612 233.984 189.308 234.256C189.02 234.528 188.788 234.848 188.612 235.216C188.452 235.568 188.372 235.952 188.372 236.368V244H187.148C186.94 244 186.732 244 186.524 244C186.316 244 186.108 244 185.9 244ZM205.813 249.52C204.917 249.52 204.021 249.376 203.125 249.088C202.245 248.816 201.533 248.456 200.989 248.008L201.901 246.088C202.221 246.328 202.597 246.536 203.029 246.712C203.461 246.904 203.917 247.048 204.397 247.144C204.877 247.256 205.349 247.312 205.813 247.312C206.693 247.312 207.429 247.168 208.021 246.88C208.613 246.592 209.061 246.168 209.365 245.608C209.669 245.048 209.821 244.352 209.821 243.52V241.096L210.085 241.264C210.005 241.76 209.741 242.24 209.293 242.704C208.861 243.152 208.317 243.52 207.661 243.808C207.005 244.096 206.333 244.24 205.645 244.24C204.445 244.24 203.373 243.96 202.429 243.4C201.501 242.824 200.765 242.048 200.221 241.072C199.677 240.08 199.405 238.952 199.405 237.688C199.405 236.424 199.669 235.304 200.197 234.328C200.741 233.336 201.477 232.56 202.405 232C203.349 231.424 204.405 231.136 205.573 231.136C206.053 231.136 206.517 231.2 206.965 231.328C207.413 231.44 207.829 231.608 208.213 231.832C208.597 232.04 208.941 232.272 209.245 232.528C209.549 232.784 209.797 233.056 209.989 233.344C210.181 233.632 210.301 233.904 210.349 234.16L209.821 234.352V231.4H212.293V243.232C212.293 244.24 212.141 245.128 211.837 245.896C211.549 246.68 211.125 247.336 210.565 247.864C210.005 248.408 209.325 248.816 208.525 249.088C207.725 249.376 206.821 249.52 205.813 249.52ZM205.909 241.96C206.693 241.96 207.389 241.776 207.997 241.408C208.605 241.04 209.077 240.536 209.413 239.896C209.749 239.256 209.917 238.52 209.917 237.688C209.917 236.856 209.741 236.12 209.389 235.48C209.053 234.824 208.581 234.312 207.973 233.944C207.381 233.576 206.693 233.392 205.909 233.392C205.141 233.392 204.453 233.584 203.845 233.968C203.253 234.336 202.781 234.848 202.429 235.504C202.093 236.144 201.925 236.872 201.925 237.688C201.925 238.504 202.093 239.24 202.429 239.896C202.781 240.536 203.253 241.04 203.845 241.408C204.453 241.776 205.141 241.96 205.909 241.96ZM224.046 244V228.184H226.518V244H224.046ZM221.43 233.8V231.4H229.446V233.8H221.43ZM237.244 244.24C236.012 244.24 234.908 243.96 233.932 243.4C232.972 242.824 232.212 242.048 231.652 241.072C231.092 240.08 230.812 238.952 230.812 237.688C230.812 236.424 231.092 235.304 231.652 234.328C232.212 233.336 232.972 232.56 233.932 232C234.908 231.424 236.012 231.136 237.244 231.136C238.46 231.136 239.548 231.424 240.508 232C241.484 232.56 242.252 233.336 242.812 234.328C243.372 235.304 243.652 236.424 243.652 237.688C243.652 238.952 243.372 240.08 242.812 241.072C242.252 242.048 241.484 242.824 240.508 243.4C239.548 243.96 238.46 244.24 237.244 244.24ZM237.244 241.984C237.996 241.984 238.668 241.8 239.26 241.432C239.852 241.048 240.316 240.536 240.652 239.896C240.988 239.24 241.148 238.504 241.132 237.688C241.148 236.856 240.988 236.12 240.652 235.48C240.316 234.824 239.852 234.312 239.26 233.944C238.668 233.576 237.996 233.392 237.244 233.392C236.492 233.392 235.812 233.584 235.204 233.968C234.612 234.336 234.148 234.848 233.812 235.504C233.476 236.144 233.316 236.872 233.332 237.688C233.316 238.504 233.476 239.24 233.812 239.896C234.148 240.536 234.612 241.048 235.204 241.432C235.812 241.8 236.492 241.984 237.244 241.984ZM234.364 229.432L233.452 228.64L236.212 225.928H238.276L241.036 228.64L240.124 229.432L236.884 227.68H237.604L234.364 229.432ZM246.753 244V231.4H249.225V244H246.753ZM247.953 228.616C247.425 228.616 247.017 228.48 246.729 228.208C246.441 227.936 246.297 227.552 246.297 227.056C246.297 226.592 246.441 226.216 246.729 225.928C247.033 225.64 247.441 225.496 247.953 225.496C248.481 225.496 248.889 225.632 249.177 225.904C249.465 226.176 249.609 226.56 249.609 227.056C249.609 227.52 249.457 227.896 249.153 228.184C248.865 228.472 248.465 228.616 247.953 228.616Z" fill="white"/>
<g clip-path="url(#clip0_16_228)">
<path fill-rule="evenodd" clip-rule="evenodd" d="M0.0114746 202.892C37.1945 198.335 82.5244 195.656 131.45 195.656C180.378 195.656 225.705 198.335 262.891 202.892C228.299 196.372 182.148 192.39 131.45 192.39C80.7531 192.39 34.6007 196.372 0.0114746 202.892Z" fill="white"/>
<path fill-rule="evenodd" clip-rule="evenodd" d="M18.4923 175.772V169.544H7.7868C7.1879 169.544 6.78375 169.382 6.57057 169.059C6.52949 168.997 6.49148 168.931 6.45934 168.858C6.36362 168.335 6.29977 167.766 6.26806 167.148V165.29V143.917C6.1417 142.033 6.24196 140.524 6.52746 139.306C6.45059 139.723 6.40983 140.154 6.31698 140.761C6.45204 140.154 6.86744 139.803 7.89611 139.741L18.4923 139.734V133.438L18.116 133.495L18.4274 133.448H3.10515C3.06825 133.448 3.03329 133.448 2.99849 133.448C2.41348 133.448 1.89987 133.526 1.46094 133.667C0.996656 133.831 0.641442 134.113 0.385732 134.517C0.137026 134.911 0.00397177 135.476 0 136.193V136.227V172.534C0.00397177 173.139 0.137026 173.673 0.385732 174.161C0.641442 174.653 0.996656 175.036 1.46094 175.327C1.92741 175.62 2.47583 175.761 3.10515 175.772H3.11121V175.782H18.3951V175.772H18.4923Z" fill="white"/>
<path fill-rule="evenodd" clip-rule="evenodd" d="M67.2849 153.965C67.1685 154.033 67.0341 154.102 66.8848 154.163C67.0165 154.104 67.1493 154.037 67.2849 153.965Z" fill="white"/>
<path fill-rule="evenodd" clip-rule="evenodd" d="M59.1441 175.772H59.152C59.297 175.768 59.4471 175.77 59.5953 175.772H59.6031H59.6113H59.6203H59.6282H59.6364H59.6454H59.6533H59.6615H59.6697H59.678H65.658V170.398C65.6513 170.236 65.6513 170.067 65.656 169.889V164.31V158.455V157.629C65.9135 157.521 66.153 157.361 66.3709 157.154C66.6657 156.86 66.9212 156.437 67.149 155.872C67.3728 155.325 67.5727 154.591 67.7459 153.697L67.76 153.689L71.6266 133.498H64.9826L62.5141 147.275L62.2895 148.515L62.2837 148.485C61.6542 145.07 60.5673 139.281 59.4785 133.498H53.1523L58.0874 157.858H59.1461V158.455V175.224C59.1508 175.416 59.1441 175.566 59.1441 175.772Z" fill="white"/>
<path fill-rule="evenodd" clip-rule="evenodd" d="M118.077 141.366H118.079C118.09 141.262 118.106 141.167 118.127 141.075L118.128 141.073L118.139 141.032L118.14 141.024L118.144 141.011L118.146 141.001L118.15 140.99L118.168 140.93V140.928L118.174 140.911L118.175 140.905L118.181 140.891L118.183 140.882L118.187 140.872L118.216 140.797L118.217 140.792L118.24 140.742L118.246 140.728L118.248 140.724L118.256 140.707L118.256 140.706L118.265 140.69L118.266 140.687L118.273 140.672L118.276 140.667L118.287 140.646L118.291 140.639L118.298 140.626L118.301 140.622L118.309 140.607L118.31 140.605L118.32 140.589L118.32 140.588L118.329 140.573L118.35 140.542L118.356 140.532L118.36 140.527L118.369 140.513L118.371 140.512L118.382 140.496V140.496L118.392 140.482L118.421 140.444L118.426 140.439C118.482 140.369 118.546 140.305 118.617 140.25C118.68 140.203 118.746 140.16 118.815 140.122V140.121L118.834 140.111V140.11L118.871 140.091L118.872 140.09L118.891 140.081V140.08L118.91 140.071L118.91 140.07L118.949 140.052L118.95 140.051L118.969 140.043V140.042L118.989 140.034L118.99 140.034L119.009 140.025H119.01L119.029 140.017H119.03L119.049 140.009L119.05 140.008L119.07 140H119.071L119.09 139.993H119.092L119.111 139.985H119.112L119.133 139.977L119.133 139.977L119.154 139.97L119.154 139.97L119.175 139.963L119.175 139.963L119.196 139.956H119.197L119.217 139.949H119.219L119.239 139.943H119.241L119.261 139.937L119.262 139.936L119.283 139.931H119.284L119.305 139.924H119.306L119.327 139.919H119.328L119.349 139.913H119.351L119.372 139.908H119.373L119.394 139.904H119.396L119.417 139.899H119.419L119.44 139.894H119.442L119.463 139.89L119.465 139.889L119.486 139.885H119.488L119.51 139.881H119.511L119.533 139.878H119.535L119.556 139.874H119.558L119.58 139.871H119.582L119.605 139.867H119.606L119.628 139.865L119.63 139.864L119.652 139.862H119.655L119.677 139.86H119.679L119.701 139.857H119.703L119.726 139.855H119.728L119.751 139.853H119.753L119.776 139.852H119.778L119.8 139.85H119.802L119.826 139.849H119.828L119.851 139.848H119.853L119.877 139.847H119.878L119.902 139.847H119.904H119.927H119.929L119.954 139.846H119.956L119.98 139.847H119.982H120.006H120.008H125.57H125.573L125.57 139.189V133.438H125.547H125.534H125.522H125.509H125.498H125.487H125.476H125.466H125.456H125.447H125.438H125.429H125.42H125.412H125.405H125.398H125.391H125.384H125.378H125.372H125.366H125.36H125.355H125.35H125.345H125.341H125.336H125.332H125.328H125.324H125.321H125.318H125.314H125.309H125.302H125.297H125.292H125.288H125.283H125.28H125.275H125.271H125.267H125.262H125.258H125.253H118.926H118.536H118.227H104.335L104.316 139.847H111.857V140.223V172.799C111.857 173.535 111.906 174.099 112.008 174.515C112.108 174.927 112.273 175.218 112.496 175.387C112.716 175.571 113.002 175.68 113.345 175.712C113.692 175.754 114.105 175.772 114.592 175.761H118.059V141.661C118.061 141.558 118.066 141.459 118.077 141.366Z" fill="white"/>
<path fill-rule="evenodd" clip-rule="evenodd" d="M91.5918 146.091H98.09V139.68V139.627V133.447H98.072H84.3697H82.7447H81.9361C79.4601 133.581 77.937 134.204 77.8602 136.476L77.8535 136.718V146.439H77.8602V149.471L77.8629 149.586V149.593V149.635C77.8676 151.468 77.8978 152.832 78.0272 153.848C78.4105 156.773 79.6487 156.821 83.5846 156.914L90.2177 156.909C90.8256 156.904 91.2602 157.059 91.5248 157.379C91.6965 157.58 91.787 157.853 91.8262 158.199V160.887C91.8427 160.624 91.8591 160.365 91.8658 160.115C91.8501 159.469 91.838 158.836 91.8317 158.232C91.8501 158.421 91.8568 158.631 91.8544 158.86V159.473H91.8823C91.8803 159.684 91.8756 159.898 91.8658 160.115C91.9383 162.941 92.0567 166.072 91.7984 168.514L91.7968 168.53C91.7459 168.733 91.6722 168.907 91.5754 169.052C91.3622 169.375 90.9608 169.537 90.3611 169.537H84.356V163.129H77.8535V175.77L79.602 175.765H79.6553H94.992C95.6188 175.756 96.1671 175.615 96.6312 175.322C97.1003 175.031 97.4535 174.646 97.7086 174.154C97.9583 173.667 98.0857 173.132 98.09 172.527V172.498V153.162C98.0857 152.445 97.9583 151.881 97.7086 151.486C97.4535 151.082 97.1003 150.8 96.6312 150.639C96.1671 150.489 95.5886 150.436 94.9618 150.447H90.777H90.6096H90.4426H89.6368H89.4808C86.569 150.431 84.5116 150.166 84.0981 147.206C83.8774 145.636 84.0217 141.911 84.1491 140.703L84.1534 140.667C84.2031 140.472 84.2749 140.305 84.367 140.165C84.5814 139.842 84.9855 139.68 85.5844 139.68H91.5918V146.091Z" fill="white"/>
<path fill-rule="evenodd" clip-rule="evenodd" d="M40.511 140.469C40.5459 140.938 40.5717 141.416 40.5854 141.898C40.5854 143.819 40.5717 144.041 40.5717 145.959H40.5854V148.671C40.5972 149.337 40.4643 149.822 40.1908 150.135C39.7514 150.673 39.0108 150.579 38.3842 150.653C36.2728 150.899 35.2999 151.748 34.9124 153.131C34.5357 154.466 34.691 156.77 34.691 158.215C37.269 158.192 40.4667 158.799 40.5596 161.964L40.6783 175.762H47.1017V160.65C47.1377 158.206 46.306 156.551 44.9769 155.432C45.5754 155.165 46.0449 154.786 46.3189 154.24C47.4497 151.989 46.9997 146.981 47.0973 141.231C47.0973 139.802 47.0946 138.375 47.0946 136.946C47.1522 134.657 46.1563 133.551 43.9782 133.449L34.7794 133.438L34.8023 133.443L26.9004 133.438V175.22C26.905 175.409 26.9161 175.592 26.9325 175.771C26.984 175.767 27.0326 175.765 27.0788 175.762H27.4297H33.412V170.39C33.4046 170.231 33.4046 170.06 33.4093 169.883V164.301V158.451C33.4093 152.066 33.412 145.677 33.412 139.299L38.3557 139.303C39.3978 139.281 40.1661 139.292 40.451 139.903C40.4781 140.108 40.4976 140.298 40.511 140.469Z" fill="white"/>
<path fill-rule="evenodd" clip-rule="evenodd" d="M244.43 133.438L249.367 157.795H250.426V158.393V175.164L250.427 175.717L256.936 175.709C256.936 169.937 256.933 164.165 256.933 158.393V157.566C257.191 157.458 257.43 157.301 257.649 157.091C257.944 156.798 258.201 156.375 258.429 155.812C258.656 155.251 258.865 154.533 259.042 153.605L259.041 153.606L262.904 133.438H256.26L253.791 147.212L253.568 148.453C252.662 143.445 251.7 138.44 250.756 133.438H244.43Z" fill="white"/>
<path fill-rule="evenodd" clip-rule="evenodd" d="M209.605 153.142C210.22 152.873 210.703 152.489 210.982 151.933C211.742 150.419 211.786 147.651 211.762 144.248H211.739C211.747 141.871 211.744 139.541 211.774 136.627C211.832 134.546 210.837 133.54 208.658 133.449H208.655H208.652L199.459 133.438L199.485 133.443L191.58 133.438V175.771L199.481 175.766L199.459 175.771L208.652 175.76H208.655H208.658C210.837 175.66 211.832 174.554 211.774 172.265V171.859V171.764V171.669V171.579V171.489V171.401V171.314V171.231V171.148V171.067V170.989V170.91V170.836V170.758V170.686V170.614V170.545V170.474V170.407V170.338V170.276L211.777 170.208V170.145V170.083V170.021V169.961V169.899V169.839V169.781V169.723V169.665V169.61V169.552V169.497V169.442V169.386V169.331V169.278V169.222V169.169V169.113V169.061V169.008V168.952V168.899V168.844V168.788V168.735V168.68V168.624V168.569V168.511V168.456V168.398V168.34V168.281V168.222V168.163V168.103V168.04V167.978L211.779 164.312C211.761 163.455 211.753 162.643 211.753 161.877H211.73V158.358C211.766 155.915 210.935 154.26 209.605 153.142ZM205.216 140.164C205.238 140.483 205.255 140.807 205.265 141.134V144.248H205.246V146.368C205.258 147.032 205.126 147.517 204.852 147.829C204.41 148.367 203.672 148.272 203.045 148.348C200.932 148.595 199.961 149.443 199.573 150.828L199.569 150.842H199.541C199.336 151.734 199.299 152.581 199.305 153.418V153.421C199.291 154.32 199.32 155.226 199.32 155.925C201.897 155.902 205.095 156.507 205.188 159.674L205.24 165.755H205.265V167.311C205.251 167.793 205.226 168.271 205.191 168.74C205.178 168.911 205.158 169.102 205.131 169.307C204.845 169.917 204.077 169.928 203.036 169.905L198.089 169.913L198.087 155.754V155.549V155.457V155.251V155.156V154.951V154.857V154.651V154.559V154.353V154.258V154.053V153.958V153.755V153.66V153.455L198.089 139.296L203.036 139.301C204.209 139.279 205.036 139.296 205.216 140.164Z" fill="white"/>
<path fill-rule="evenodd" clip-rule="evenodd" d="M236.681 175.772H243.553L239.984 157.14C238.639 157.966 235.609 159.912 234.129 161.523L236.681 175.772Z" fill="white"/>
<path fill-rule="evenodd" clip-rule="evenodd" d="M230.781 142.817L231.008 144.09L232.374 151.708C234.559 151.613 236.953 151.908 239.087 152.495L236.254 137.678C236.078 136.75 235.871 135.993 235.646 135.432C235.418 134.867 235.158 134.444 234.863 134.151C234.571 133.87 234.239 133.678 233.872 133.578C233.528 133.495 233.145 133.444 232.727 133.444C232.688 133.444 232.645 133.447 232.606 133.447H226.585L218.006 175.772H224.574H224.576L224.579 175.755C228.289 163.08 238.143 156.541 243.563 154.766C241.175 153.131 237.055 152.084 233.347 152.084C231.739 152.084 230.207 152.282 228.931 152.713C229.668 148.793 230.337 145.217 230.781 142.817Z" fill="white"/>
<path fill-rule="evenodd" clip-rule="evenodd" d="M142.963 175.772H149.834L146.265 157.14C144.92 157.966 141.89 159.912 140.41 161.523L142.963 175.772Z" fill="white"/>
<path fill-rule="evenodd" clip-rule="evenodd" d="M137.06 142.817L137.287 144.09L138.653 151.708C140.838 151.613 143.233 151.908 145.367 152.495L142.534 137.678C142.357 136.75 142.15 135.993 141.925 135.432C141.697 134.867 141.437 134.444 141.143 134.151C140.85 133.87 140.518 133.678 140.151 133.578C139.807 133.495 139.424 133.444 139.006 133.444C138.967 133.444 138.925 133.447 138.885 133.447H132.864L124.285 175.772H130.853H130.855L130.858 175.755C134.568 163.08 144.422 156.541 149.842 154.766C147.455 153.131 143.335 152.084 139.626 152.084C138.018 152.084 136.486 152.282 135.21 152.713C135.947 148.793 136.616 145.217 137.06 142.817Z" fill="white"/>
<path fill-rule="evenodd" clip-rule="evenodd" d="M156.07 175.772H169.909H172.04H172.064V174.474V169.361H164.219C163.659 169.372 163.195 169.232 162.828 168.96L162.814 168.948L162.812 168.946L162.801 168.936L162.795 168.932L162.787 168.925L162.779 168.918L162.773 168.913L162.763 168.904L162.761 168.901L162.748 168.889L162.747 168.888L162.735 168.876L162.733 168.874L162.722 168.863L162.718 168.859L162.709 168.85L162.703 168.844L162.697 168.837L162.688 168.828L162.685 168.824L162.674 168.812L162.673 168.81L162.661 168.796H162.66L162.649 168.783L162.646 168.78L162.638 168.768L162.626 168.754L162.619 168.746L162.615 168.739L162.607 168.729L162.605 168.725L162.594 168.711L162.593 168.71L162.583 168.695L162.581 168.693L162.572 168.68L162.569 168.676L162.561 168.664L162.556 168.656L162.552 168.649L162.545 168.638L162.542 168.633L162.533 168.619L162.532 168.617L162.522 168.601L162.521 168.6L162.513 168.584L162.511 168.58L162.503 168.567L162.5 168.561L162.494 168.551L162.489 168.54L162.485 168.534L162.478 168.52L162.477 168.517L162.469 168.499H162.468L162.46 168.482L162.459 168.479L162.452 168.464L162.449 168.458L162.431 168.414L162.428 168.409L162.421 168.393L162.42 168.391L162.399 168.334L162.396 168.325C162.32 168.104 162.281 167.844 162.273 167.549V133.447H158.806C158.718 133.444 158.629 133.444 158.545 133.444C158.17 133.444 157.84 133.463 157.557 133.498C157.215 133.527 156.929 133.638 156.706 133.818C156.484 133.992 156.323 134.282 156.219 134.696C156.124 135.089 156.075 135.62 156.07 136.305V136.406V175.772Z" fill="white"/>
<path fill-rule="evenodd" clip-rule="evenodd" d="M130.854 175.772H130.855L130.859 175.755C134.569 163.081 144.423 156.541 149.842 154.767C147.455 153.132 143.335 152.084 139.626 152.084C138.018 152.084 136.486 152.282 135.211 152.714C135.04 153.687 134.859 154.7 134.672 155.734C133.009 164.924 130.854 175.772 130.854 175.772Z" fill="white"/>
<path fill-rule="evenodd" clip-rule="evenodd" d="M224.619 175.772H224.621L224.624 175.755C228.334 163.081 238.188 156.541 243.608 154.767C241.221 153.132 237.101 152.084 233.392 152.084C231.784 152.084 230.252 152.282 228.976 152.714C228.806 153.687 228.625 154.7 228.438 155.734C226.775 164.924 224.619 175.772 224.619 175.772Z" fill="white"/>
<path fill-rule="evenodd" clip-rule="evenodd" d="M104.617 80.8038C103.517 82.7294 101.841 85.497 101.207 88.099C101.316 87.8562 101.384 87.7464 101.529 87.5137C103.146 84.9083 106.961 82.9624 111.338 81.2313C112.419 80.805 113.484 80.4274 114.562 80.046C119.269 78.3815 124.254 76.6133 129.602 71.0891C129.724 70.9597 129.824 70.8374 129.936 70.6983C130.043 70.8331 130.141 70.9542 130.26 71.0785C135.276 76.2661 139.253 77.7397 144.796 79.7982C145.974 80.2365 147.226 80.7014 148.568 81.2313C153.218 83.0696 156.979 85.0707 158.501 87.6766C158.582 87.8145 158.657 87.9568 158.725 88.0978C158.059 85.5036 156.34 82.6452 155.288 80.8038C147.597 67.3174 135.043 57.333 129.936 45.5586C124.268 58.2069 111.636 68.4956 104.617 80.8038Z" fill="white"/>
<path fill-rule="evenodd" clip-rule="evenodd" d="M93.0508 9.22827C94.5535 8.11231 98.5699 7.5533 100.444 7.36967C102.157 7.20209 103.636 7.19371 105.102 7.428C106.57 7.66217 108.019 8.14161 109.669 8.94454C114.687 11.3907 118.849 16.0725 122.213 21.3834C125.507 26.5829 127.792 32.3861 129.616 37.2791C129.662 37.4029 129.893 38.012 129.932 38.0107H129.937C129.976 38.012 130.207 37.4029 130.253 37.2791C132.077 32.3861 134.363 26.5829 137.656 21.3834C141.021 16.0725 145.183 11.3907 150.201 8.94454C151.85 8.14161 153.299 7.66217 154.767 7.428C156.233 7.19371 157.712 7.20209 159.426 7.36967C161.299 7.5533 165.316 8.11231 166.819 9.22827C160.458 3.50418 138.359 0.050237 129.935 0C121.51 0.050237 99.4114 3.50418 93.0508 9.22827Z" fill="white"/>
<path fill-rule="evenodd" clip-rule="evenodd" d="M118.553 91.8409C117.663 93.2136 119.023 94.3755 120.118 95.438L129.935 104.952L139.781 95.438C140.783 94.4666 142.008 93.4119 141.53 92.1892C140.953 90.7106 138.402 90.0556 137.029 89.6566C134.52 88.9276 131.73 88.1191 129.936 85.1045C128.349 88.0517 125.001 89.1493 122.231 90.0525C121.206 90.3872 119.151 90.9221 118.553 91.8409Z" fill="white"/>
<path fill-rule="evenodd" clip-rule="evenodd" d="M118.512 90.9346C119.316 90.2905 120.605 89.9052 122.094 89.4193C124.896 88.5056 128.335 87.3877 129.75 84.331L129.935 83.9297L130.144 84.319C131.84 87.4719 134.629 88.2874 137.152 89.0203C138.781 89.4925 140.297 89.9336 141.373 90.9357L141.306 90.7733C139.954 87.5884 137.331 84.2387 135.145 81.5467C133.413 79.4127 131.149 76.9194 129.935 74.7109C128.791 76.9864 126.912 79.214 124.942 81.542C122.54 84.3809 120.038 87.3297 118.596 90.7242H118.597L118.512 90.9346Z" fill="white"/>
<path fill-rule="evenodd" clip-rule="evenodd" d="M105.428 97.3714L129.934 120.714L154.475 97.3714C158.667 93.3777 159.409 90.3837 157.998 87.9668C156.555 85.4969 152.894 83.5624 148.353 81.7673C147.011 81.237 145.765 80.7741 144.594 80.3381C141.383 79.1466 137.834 77.6933 134.73 75.6317C132.958 74.4546 131.021 72.6366 129.935 71.4307C133.511 77.2814 140.689 83.0835 143.677 90.4472C144.884 93.4275 144.215 94.0276 141.958 96.1741L130.152 107.413L129.935 107.604L129.751 107.413L117.944 96.1752C115.725 94.0576 114.974 93.5312 116.223 90.4472C119.198 83.1263 125.548 77.68 129.933 71.4311C128.549 72.702 127.694 73.7809 126.136 74.9592C122.15 77.975 118.366 79.3142 114.754 80.591C113.661 80.9775 112.581 81.3601 111.55 81.7673C107.272 83.4587 103.555 85.3442 102.02 87.816C100.519 90.2329 101.13 93.2783 105.428 97.3714Z" fill="white"/>
<path fill-rule="evenodd" clip-rule="evenodd" d="M161.41 20.8332C153.409 25.4992 145.925 30.9747 139.065 37.1356C133.601 42.3194 133.126 42.9529 138.156 48.6171C139.044 49.6391 139.916 50.6782 140.773 51.7287C141.107 52.1643 141.794 52.995 142.43 53.3998C142.413 53.3184 142.403 53.2288 142.402 53.1333C142.402 49.9555 149.24 39.9309 151.157 37.3329C156.382 30.2501 163.334 22.7891 170.228 19.3942C172.657 18.1981 175.084 17.5037 177.43 17.5049C178.621 17.5064 179.766 17.6798 180.858 18.0155C181.201 18.1218 181.538 18.2436 181.871 18.3815C179.644 16.9023 177.344 15.7383 174.581 15.7383C170.274 15.7383 165.063 18.7005 161.41 20.8332Z" fill="white"/>
<path fill-rule="evenodd" clip-rule="evenodd" d="M143.113 53.2738C143.355 53.1717 143.68 52.9519 144.03 52.6811C144.03 52.6698 145.036 51.8387 145.136 51.7491C145.548 51.3794 145.865 51.0817 146.086 50.8748C150.198 47.0042 156.085 42.8841 160.843 39.8014C165.859 36.5502 171.098 33.6241 176.524 31.0549C179.068 29.6674 181.591 28.8065 183.67 28.1001C185.819 27.3688 187.482 26.8027 188.112 26.0148C188.943 24.975 187.917 23.3592 183.676 20.0066C182.727 19.3698 181.729 18.8864 180.686 18.5653C179.649 18.2463 178.561 18.0808 177.429 18.0801C175.179 18.0801 172.836 18.7516 170.483 19.9105C163.687 23.2576 156.806 30.6495 151.624 37.6731C146.496 44.6243 143.039 51.1779 142.983 53.0739C142.981 53.151 142.983 53.2453 143.006 53.3166L143.113 53.2738Z" fill="white"/>
<path fill-rule="evenodd" clip-rule="evenodd" d="M183.767 36.1638C171.528 40.9186 159.997 47.2295 149.916 55.3561C144.668 59.5876 147.475 60.4151 150.732 65.5322C152.745 68.8628 153.615 70.4677 154.648 70.7307C154.29 70.0945 154.965 68.195 157.253 64.2636C160.968 57.8116 170.745 48.5278 176.675 44.0142C182.828 39.3285 189.284 35.8946 194.52 35.8946C196.214 35.8946 197.68 36.2787 198.911 37.041C199.313 37.2905 199.682 37.5734 200.027 37.8969C198.433 35.3218 196.347 33.6787 193.201 33.6787C190.37 33.6787 186.431 35.1304 183.767 36.1638Z" fill="white"/>
<path fill-rule="evenodd" clip-rule="evenodd" d="M157.796 64.4821C155.41 68.5721 154.751 70.2007 155.112 70.408C155.565 70.6695 157.744 68.9827 160.203 67.077L161.303 66.228C166.499 62.6734 171.935 59.4834 177.565 56.6901C183.17 53.9081 188.976 51.513 194.939 49.5329C194.939 49.4312 199.347 48.1579 199.85 48.0188C201.005 47.6997 201.877 47.4581 202.471 47.1784C204.002 46.456 203.529 45.2855 201.385 40.795C200.746 39.4468 199.809 38.2408 198.51 37.4715C197.394 36.8072 196.061 36.4727 194.52 36.4727C189.426 36.4727 183.089 39.8563 177.027 44.4723C168.916 50.6465 161.316 59.0174 157.796 64.4821Z" fill="white"/>
<path fill-rule="evenodd" clip-rule="evenodd" d="M192.927 57.816C183.186 61.1002 173.937 65.4696 165.325 70.7865C156.667 76.1296 156.828 76.1495 160.753 84.07C161.351 85.4068 161.93 86.7515 162.486 88.1047C163.133 89.6807 163.368 90.5071 163.651 90.7799C163.666 90.3279 164.063 89.4399 164.961 87.9059C167.645 83.069 170.924 78.5286 174.668 74.4098C178.443 70.2578 182.689 66.5344 187.27 63.3675C189.713 61.678 193.215 59.6184 196.751 58.1565C199.446 57.0418 202.168 56.2718 204.467 56.2718C205.535 56.2718 206.484 56.4363 207.303 56.7698C205.997 55.9173 204.459 55.5654 202.756 55.5654C199.454 55.5654 196.026 56.7714 192.927 57.816Z" fill="white"/>
<path fill-rule="evenodd" clip-rule="evenodd" d="M98.4615 20.8332C106.462 25.4992 113.947 30.9747 120.807 37.1356C126.27 42.3194 126.746 42.9529 121.715 48.6171C120.827 49.6391 119.956 50.6782 119.099 51.7287C118.764 52.1643 118.077 52.995 117.441 53.3998C117.464 53.2935 117.47 53.1879 117.468 53.0811C117.421 51.1029 113.917 44.3833 108.715 37.3329C103.489 30.2501 96.5378 22.7891 89.6433 19.3942C87.2144 18.1981 84.787 17.5037 82.4416 17.5049C81.2509 17.5064 80.1052 17.6798 79.014 18.0155C78.671 18.1218 78.3332 18.2436 78 18.3815C80.2271 16.9023 82.5274 15.7383 85.2903 15.7383C89.6171 15.7383 94.7955 18.6929 98.4615 20.8332Z" fill="white"/>
<path fill-rule="evenodd" clip-rule="evenodd" d="M116.758 53.2747C116.447 53.1434 116.094 52.8797 115.829 52.672C115.116 52.1199 114.443 51.493 113.786 50.8758C109.667 47.002 103.791 42.8882 99.0283 39.8023C94.0121 36.5512 88.7733 33.6251 83.3471 31.0559C80.8037 29.6684 78.2795 28.8075 76.2014 28.101C74.0523 27.3698 72.39 26.8037 71.7594 26.0158C70.9285 24.976 71.9546 23.3602 76.1955 20.0076C77.1444 19.3708 78.1423 18.8874 79.1853 18.5663C80.222 18.2472 81.3101 18.0818 82.4421 18.0811C84.6923 18.0811 87.035 18.7526 89.3878 19.9114C96.1851 23.2586 103.065 30.6505 108.247 37.6741C113.365 44.6108 116.818 51.1512 116.888 53.0628C116.891 53.1427 116.89 53.2448 116.866 53.3176L116.758 53.2747Z" fill="white"/>
<path fill-rule="evenodd" clip-rule="evenodd" d="M76.0451 36.1412C88.3058 40.8987 99.8574 47.2166 109.954 55.3561C115.202 59.5876 112.396 60.4151 109.138 65.5322C107.126 68.8628 106.256 70.4677 105.222 70.7307C105.805 69.6966 103.104 64.9867 102.569 64.1825C99.0225 58.6715 91.3626 50.2316 83.1955 44.0142C77.043 39.3285 70.5864 35.8946 65.3499 35.8946C63.6602 35.8946 62.1955 36.277 60.9667 37.0365C60.5642 37.283 60.1879 37.5743 59.8438 37.8969C61.4366 35.3218 63.5234 33.6787 66.6696 33.6787C69.788 33.6787 73.1239 35.14 76.0451 36.1412Z" fill="white"/>
<path fill-rule="evenodd" clip-rule="evenodd" d="M102.074 64.4821C104.459 68.5721 105.118 70.2007 104.758 70.408C104.305 70.6695 102.125 68.9827 99.6663 67.077L98.5669 66.228C93.3708 62.6734 87.9344 59.4834 82.3044 56.6901C76.6991 53.9081 70.8931 51.513 64.9307 49.5329C64.9307 49.4312 60.522 48.1579 60.0187 48.0188C58.8648 47.6997 57.9927 47.4581 57.3989 47.1784C55.8676 46.456 56.3407 45.2855 58.4846 40.795C59.1666 39.3553 60.0846 38.2732 61.2267 37.554L61.226 37.5534C62.3685 36.8347 63.7466 36.4727 65.3493 36.4727C70.4431 36.4727 76.7806 39.8563 82.8429 44.4723C90.9532 50.6465 98.5539 59.0174 102.074 64.4821Z" fill="white"/>
<path fill-rule="evenodd" clip-rule="evenodd" d="M66.9448 57.816C76.6852 61.1002 85.9337 65.4696 94.5468 70.7865C103.204 76.1296 103.044 76.1495 99.1186 84.07C98.5201 85.4068 97.9415 86.7515 97.385 88.1047C96.7383 89.6807 96.5039 90.5071 96.2209 90.7799C96.2048 90.3279 95.8085 89.4399 94.9106 87.9059C92.2261 83.069 88.9466 78.5286 85.2035 74.4098C81.4294 70.2578 77.183 66.5344 72.601 63.3675C70.158 61.678 66.6563 59.6184 63.1205 58.1565C60.425 57.0418 57.7037 56.2718 55.4045 56.2718C54.3361 56.2718 53.3879 56.4363 52.5684 56.7698C53.8747 55.9173 55.4128 55.5654 57.115 55.5654C60.4427 55.5654 63.8248 56.7647 66.9448 57.816Z" fill="white"/>
<path fill-rule="evenodd" clip-rule="evenodd" d="M72.2695 63.842C76.8221 66.9891 81.0348 70.6821 84.774 74.7947C88.487 78.8788 91.7394 83.3849 94.4047 88.1895C94.4936 88.3754 95.7961 90.5289 95.7871 90.6213C95.7777 90.6267 95.2054 90.1934 94.4439 89.6133C93.8559 89.1667 93.1641 88.6407 92.4457 88.172C86.7577 84.4755 80.7604 81.1866 74.5487 78.3688C68.399 75.579 62.0388 73.2497 55.5614 71.4399C54.2284 71.0658 53.0948 70.7853 52.1467 70.5519C49.8887 69.9947 48.7093 69.7029 48.3142 69.0051C47.8736 68.2285 48.273 66.783 49.1079 63.7645C49.3235 62.984 49.5669 62.105 49.7926 61.2576C50.0666 59.9811 50.615 58.7729 51.6666 57.9476C52.6069 57.2089 53.8643 56.8496 55.4034 56.8496C57.6211 56.8496 60.2664 57.6004 62.8968 58.6883C66.3871 60.1315 69.8508 62.1693 72.2695 63.842Z" fill="white"/>
<path fill-rule="evenodd" clip-rule="evenodd" d="M109.185 9.46122C114.095 11.8543 118.182 16.4595 121.495 21.6893C124.67 26.7026 127.138 32.2946 128.941 37.075C128.854 37.0205 128.767 36.9613 128.682 36.8991C128.396 36.6893 128.126 36.4475 127.894 36.2276C127.465 35.7524 127.036 35.2837 126.61 34.8303C126.179 34.3702 125.737 33.9094 125.288 33.4526C120.752 28.8185 115.922 24.9412 110.807 21.4721C105.701 18.0078 100.305 14.947 94.6291 11.936C94.1396 11.6375 92.8501 10.8329 92.7968 10.2544C92.745 9.72087 93.964 9.25214 94.2764 9.13669C96.3169 8.38123 99.6285 8.00601 100.271 7.94222C101.937 7.7801 103.37 7.77036 104.782 7.99615C106.191 8.22132 107.589 8.68413 109.185 9.46122Z" fill="white"/>
<path fill-rule="evenodd" clip-rule="evenodd" d="M150.685 9.46122C145.776 11.8543 141.689 16.4595 138.376 21.6893C135.201 26.7026 132.733 32.2946 130.93 37.075C131.017 37.0205 131.104 36.9613 131.188 36.8991C131.475 36.6893 131.744 36.4475 131.977 36.2276C132.406 35.7524 132.835 35.2837 133.261 34.8303C133.692 34.3702 134.134 33.9094 134.582 33.4526C139.118 28.8185 143.949 24.9412 149.064 21.4721C154.169 18.0078 159.565 14.947 165.242 11.936C165.515 11.7693 165.896 11.5324 166.246 11.2619C166.502 11.0626 167.041 10.6096 167.074 10.2544C167.126 9.72087 165.907 9.25214 165.594 9.13669C163.554 8.38123 160.242 8.00601 159.599 7.94222C157.934 7.7801 156.5 7.77036 155.089 7.99615C153.679 8.22132 152.282 8.68413 150.685 9.46122Z" fill="white"/>
<path fill-rule="evenodd" clip-rule="evenodd" d="M187.602 63.842C183.049 66.9891 178.836 70.6821 175.097 74.7947C171.384 78.8788 168.131 83.3849 165.466 88.1895C165.38 88.3614 164.075 90.5348 164.084 90.6213C164.093 90.6267 164.666 90.1934 165.427 89.6133C171.059 85.3335 178.885 81.2887 185.322 78.3688C191.472 75.579 197.832 73.2497 204.31 71.4399C205.642 71.0658 206.776 70.7853 207.724 70.5519C209.982 69.9947 211.162 69.7029 211.557 69.0051C211.997 68.2285 211.598 66.783 210.763 63.7645C210.547 62.984 210.304 62.105 210.078 61.2576C209.804 59.9811 209.256 58.7729 208.205 57.9476C207.264 57.2089 206.007 56.8496 204.468 56.8496C202.25 56.8496 199.605 57.6004 196.974 58.6883C193.484 60.1315 190.021 62.1693 187.602 63.842Z" fill="white"/>
</g>
<defs>
<clipPath id="clip0_16_228">
<rect width="263" height="203" fill="white"/>
</clipPath>
</defs>
</svg>
