<svg width="6" height="10" viewBox="0 0 6 10" fill="none" xmlns="http://www.w3.org/2000/svg">
<path d="M5.29853 5.1707C5.2925 5.04978 5.24608 4.93485 5.16728 4.84571L1.56729 0.78971C1.52256 0.739556 1.46876 0.699053 1.40898 0.67052C1.3492 0.641987 1.2846 0.625982 1.21887 0.623414C1.15314 0.620846 1.08757 0.631764 1.0259 0.655552C0.964231 0.679341 0.907669 0.71553 0.859447 0.762053C0.811225 0.808576 0.772286 0.864525 0.744854 0.926699C0.717423 0.988873 0.702035 1.05606 0.699571 1.12442C0.697106 1.19277 0.707612 1.26097 0.73049 1.3251C0.753368 1.38924 0.788168 1.44806 0.832905 1.49821L4.11728 5.19996L0.832905 8.90171C0.788168 8.95186 0.753368 9.01068 0.73049 9.07481C0.707612 9.13895 0.697106 9.20714 0.699571 9.2755C0.702035 9.34386 0.717423 9.41104 0.744854 9.47322C0.772286 9.53539 0.811225 9.59134 0.859447 9.63786C0.907669 9.68438 0.964231 9.72057 1.0259 9.74436C1.08757 9.76815 1.15314 9.77907 1.21887 9.77651C1.2846 9.77394 1.3492 9.75793 1.40898 9.72939C1.46876 9.70086 1.52256 9.66036 1.56729 9.61021L5.16728 5.5542C5.21283 5.50275 5.24793 5.44226 5.27049 5.37637C5.29304 5.31047 5.30258 5.24052 5.29853 5.1707Z" fill="white"/>
</svg>
