<svg width="5" height="8" viewBox="0 0 5 8" fill="none" xmlns="http://www.w3.org/2000/svg">
<path d="M4.22796 3.97872C4.22309 3.8904 4.18561 3.80645 4.12199 3.74135L1.21529 0.778953C1.17918 0.742322 1.13575 0.71274 1.08748 0.6919C1.03921 0.67106 0.987052 0.65937 0.933981 0.657495C0.88091 0.655619 0.827966 0.663593 0.778173 0.680968C0.728379 0.698342 0.68271 0.724774 0.643775 0.758753C0.60484 0.792732 0.5734 0.833596 0.551251 0.879006C0.529102 0.924416 0.516678 0.973486 0.514688 1.02341C0.512698 1.07334 0.521181 1.12315 0.539653 1.16999C0.558125 1.21683 0.586224 1.2598 0.622345 1.29642L3.2742 4.00008L0.622345 6.70374C0.586224 6.74037 0.558125 6.78333 0.539653 6.83017C0.521181 6.87702 0.512698 6.92682 0.514688 6.97675C0.516678 7.02668 0.529102 7.07575 0.551251 7.12116C0.5734 7.16657 0.60484 7.20743 0.643775 7.24141C0.68271 7.27539 0.728379 7.30182 0.778173 7.31919C0.827966 7.33657 0.88091 7.34455 0.933981 7.34267C0.987052 7.3408 1.03921 7.3291 1.08748 7.30826C1.13575 7.28742 1.17918 7.25785 1.21529 7.22121L4.12199 4.25881C4.15876 4.22123 4.18711 4.17705 4.20531 4.12893C4.22352 4.0808 4.23122 4.02971 4.22796 3.97872Z" fill="#145062"/>
</svg>
