<svg width="5" height="9" viewBox="0 0 5 9" fill="none" xmlns="http://www.w3.org/2000/svg">
<path d="M4.59931 4.47298C4.59328 4.36136 4.54686 4.25527 4.46806 4.17299L0.868066 0.428989C0.823336 0.382693 0.769545 0.345306 0.709764 0.318968C0.649983 0.29263 0.585384 0.277856 0.519655 0.275485C0.453925 0.273115 0.388353 0.283193 0.326682 0.305152C0.265012 0.32711 0.20845 0.360516 0.160228 0.40346C0.112006 0.446404 0.0730674 0.498049 0.0456356 0.555441C0.0182039 0.612832 0.00281642 0.674848 0.000351752 0.737948C-0.00211291 0.801049 0.00839357 0.863996 0.0312712 0.923198C0.0541488 0.982401 0.0889496 1.0367 0.133686 1.08299L3.41806 4.49999L0.133686 7.91699C0.0889496 7.96328 0.0541488 8.01757 0.0312712 8.07677C0.00839357 8.13598 -0.00211291 8.19892 0.000351752 8.26202C0.00281642 8.32512 0.0182039 8.38714 0.0456356 8.44453C0.0730674 8.50192 0.112006 8.55357 0.160228 8.59651C0.20845 8.63946 0.265012 8.67286 0.326682 8.69482C0.388353 8.71678 0.453925 8.72686 0.519655 8.72449C0.585384 8.72212 0.649983 8.70734 0.709764 8.68101C0.769545 8.65467 0.823336 8.61729 0.868066 8.57099L4.46806 4.82698C4.51361 4.77948 4.54872 4.72365 4.57127 4.66283C4.59382 4.602 4.60336 4.53743 4.59931 4.47298Z" fill="#B29966"/>
</svg>
