<svg width="10" height="18" viewBox="0 0 10 18" fill="none" xmlns="http://www.w3.org/2000/svg">
<path d="M0.00196838 8.94247C0.01509 8.70469 0.115994 8.47869 0.28728 8.30341L8.11299 0.327725C8.21022 0.229102 8.32716 0.149458 8.45711 0.0933509C8.58706 0.0372435 8.72749 0.00577166 8.87037 0.00072218C9.01325 -0.0043273 9.15579 0.0171411 9.28985 0.0639184C9.42391 0.110696 9.54687 0.181859 9.65169 0.273341C9.75652 0.364823 9.84117 0.47484 9.9008 0.597098C9.96043 0.719357 9.99388 0.851467 9.99924 0.985887C10.0046 1.12031 9.98175 1.2544 9.93202 1.38052C9.88229 1.50663 9.80664 1.6223 9.70939 1.72091L2.56978 9L9.70939 16.2791C9.80664 16.3777 9.88229 16.4934 9.93202 16.6195C9.98175 16.7456 10.0046 16.8797 9.99924 17.0141C9.99388 17.1485 9.96043 17.2806 9.9008 17.4029C9.84117 17.5251 9.75652 17.6352 9.65169 17.7266C9.54687 17.8181 9.42391 17.8893 9.28985 17.9361C9.15579 17.9828 9.01325 18.0043 8.87037 17.9993C8.72749 17.9942 8.58706 17.9627 8.45711 17.9066C8.32716 17.8505 8.21022 17.7709 8.11299 17.6723L0.28728 9.69658C0.188263 9.59539 0.111959 9.47646 0.0629358 9.34689C0.0139122 9.21731 -0.00682354 9.07976 0.00196838 8.94247Z" fill="#B29966"/>
</svg>
