<svg width="29" height="21" viewBox="0 0 29 21" fill="none" xmlns="http://www.w3.org/2000/svg">
<path d="M3.608 20.544L0.664 16.96C2.456 16.192 3.88533 15.2533 4.952 14.144C6.06133 12.992 6.616 12.032 6.616 11.264C6.616 10.7947 6.44533 10.3467 6.104 9.92C5.80533 9.45067 5.336 9.024 4.696 8.64C3.71467 7.91467 3.032 7.21067 2.648 6.528C2.264 5.84533 2.072 5.09866 2.072 4.288C2.072 2.96533 2.54133 1.92 3.48 1.152C4.46133 0.383996 5.72 -3.8147e-06 7.256 -3.8147e-06C8.536 -3.8147e-06 9.688 0.34133 10.712 1.024C11.7787 1.664 12.6107 2.60266 13.208 3.84C13.8053 5.03466 14.104 6.42133 14.104 8C14.104 9.36533 13.848 10.7093 13.336 12.032C12.824 13.312 12.0773 14.528 11.096 15.68C10.1573 16.7893 9.048 17.7707 7.768 18.624C6.488 19.4773 5.10133 20.1173 3.608 20.544ZM18.264 20.544L15.32 16.96C17.112 16.192 18.5413 15.2533 19.608 14.144C20.7173 12.992 21.272 12.032 21.272 11.264C21.272 10.7947 21.1013 10.3467 20.76 9.92C20.4613 9.45067 19.992 9.024 19.352 8.64C18.3707 7.91467 17.688 7.21067 17.304 6.528C16.92 5.84533 16.728 5.09866 16.728 4.288C16.728 2.96533 17.1973 1.92 18.136 1.152C19.1173 0.383996 20.376 -3.8147e-06 21.912 -3.8147e-06C23.192 -3.8147e-06 24.344 0.34133 25.368 1.024C26.4347 1.664 27.2667 2.60266 27.864 3.84C28.4613 5.03466 28.76 6.42133 28.76 8C28.76 9.36533 28.504 10.7093 27.992 12.032C27.48 13.312 26.7333 14.528 25.752 15.68C24.8133 16.7893 23.704 17.7707 22.424 18.624C21.144 19.4773 19.7573 20.1173 18.264 20.544Z" fill="#C1A875"/>
</svg>
