<svg width="29" height="21" viewBox="0 0 29 21" fill="none" xmlns="http://www.w3.org/2000/svg">
<path d="M7.408 20.672C6.128 20.672 4.95467 20.3307 3.888 19.648C2.864 18.9653 2.05333 18.0267 1.456 16.832C0.858667 15.6373 0.56 14.2507 0.56 12.672C0.56 11.3067 0.816 9.984 1.328 8.704C1.84 7.38133 2.56533 6.16533 3.504 5.056C4.48533 3.904 5.616 2.90133 6.896 2.048C8.176 1.152 9.56267 0.511998 11.056 0.127998L14 3.712C12.208 4.48 10.7573 5.44 9.648 6.592C8.58133 7.70133 8.048 8.64 8.048 9.408C8.048 9.87733 8.19733 10.3467 8.496 10.816C8.83733 11.2427 9.328 11.648 9.968 12.032C10.9493 12.7573 11.632 13.4613 12.016 14.144C12.4 14.8267 12.592 15.5733 12.592 16.384C12.592 17.7067 12.1013 18.752 11.12 19.52C10.1813 20.288 8.944 20.672 7.408 20.672ZM22.128 20.672C20.848 20.672 19.6747 20.3307 18.608 19.648C17.584 18.9653 16.7733 18.0267 16.176 16.832C15.5787 15.6373 15.28 14.2507 15.28 12.672C15.28 11.3067 15.536 9.984 16.048 8.704C16.56 7.38133 17.2853 6.16533 18.224 5.056C19.2053 3.904 20.336 2.90133 21.616 2.048C22.896 1.152 24.2827 0.511998 25.776 0.127998L28.72 3.712C26.928 4.48 25.4773 5.44 24.368 6.592C23.3013 7.70133 22.768 8.64 22.768 9.408C22.768 9.87733 22.9173 10.3467 23.216 10.816C23.5573 11.2427 24.048 11.648 24.688 12.032C25.6693 12.7573 26.352 13.4613 26.736 14.144C27.12 14.8267 27.312 15.5733 27.312 16.384C27.312 17.7067 26.8213 18.752 25.84 19.52C24.9013 20.288 23.664 20.672 22.128 20.672Z" fill="#C1A875"/>
</svg>
