<svg width="54" height="54" viewBox="0 0 54 54" fill="none" xmlns="http://www.w3.org/2000/svg">
<g clip-path="url(#clip0_16_269)">
<path fill-rule="evenodd" clip-rule="evenodd" d="M21.5688 33.9821V18.8302C26.9477 21.3613 31.1137 23.8063 36.0408 26.4424C31.977 28.6961 26.9477 31.2249 21.5688 33.9821ZM51.5457 11.2945C50.6179 10.072 49.0365 9.12045 47.3528 8.80541C42.4042 7.86568 11.5317 7.86301 6.58571 8.80541C5.23559 9.05851 4.03336 9.67029 3.0006 10.6208C-1.35098 14.6597 0.0125987 36.3192 1.0615 39.8277C1.50257 41.3464 2.07276 42.4416 2.79086 43.1605C3.71603 44.111 4.98276 44.7655 6.43777 45.059C10.5123 45.9018 31.5037 46.373 47.2667 45.1855C48.7191 44.9324 50.0046 44.2569 51.0185 43.266C55.042 39.2432 54.7677 16.3674 51.5457 11.2945Z" fill="white"/>
</g>
<defs>
<clipPath id="clip0_16_269">
<rect width="54" height="54" fill="white"/>
</clipPath>
</defs>
</svg>
